<?xml version="1.0" encoding="utf-8"?>
<!-- Generator: Adobe Illustrator 26.3.1, SVG Export Plug-In . SVG Version: 6.00 Build 0)  -->
<svg version="1.1" id="Layer_1" xmlns="http://www.w3.org/2000/svg" xmlns:xlink="http://www.w3.org/1999/xlink" x="0px" y="0px"
	 viewBox="0 0 228.66 39.08" style="enable-background:new 0 0 228.66 39.08;" xml:space="preserve">
<style type="text/css">
	.st0{fill:#4BE4F9;}
</style>
<g>
	<g>
		<path class="st0" d="M14.19,36.22c-0.39,0-0.94-0.06-1.65-0.19c-0.71-0.13-1.5-0.31-2.35-0.53c-0.86-0.23-1.74-0.5-2.64-0.81
			c-0.91-0.31-1.72-0.65-2.45-1s-1.33-0.72-1.8-1.11c-0.47-0.38-0.7-0.76-0.7-1.13c0-0.23,0.1-0.43,0.29-0.6
			c0.1-0.03,0.26-0.04,0.49-0.04c0.03,0,0.23,0.06,0.58,0.19c0.35,0.13,0.74,0.27,1.16,0.43c0.42,0.16,0.83,0.31,1.24,0.47
			c0.4,0.16,0.69,0.25,0.85,0.28c0.03-0.14,0.05-0.37,0.05-0.68c0-0.31-0.02-0.63-0.05-0.96c-0.03-0.33-0.03-0.64,0-0.96
			c0.13-1.45,0.43-3.02,0.9-4.71c0.47-1.69,1.03-3.39,1.7-5.09c0.66-1.7,1.41-3.34,2.23-4.92c0.82-1.57,1.69-2.97,2.59-4.19
			c0.74-0.99,1.53-1.94,2.35-2.85c0.82-0.91,1.58-1.87,2.26-2.89c-1.49,0.43-2.65,0.8-3.49,1.11c-0.84,0.31-1.56,0.68-2.16,1.11
			s-1.19,0.95-1.77,1.58c-0.58,0.62-1.36,1.43-2.33,2.43c0.1-0.26,0.26-0.53,0.49-0.83c0.23-0.3,0.48-0.61,0.75-0.94
			c0.27-0.33,0.56-0.63,0.85-0.92c0.29-0.28,0.53-0.52,0.73-0.72c-0.23,0.17-0.51,0.42-0.85,0.74c-0.34,0.33-0.67,0.68-0.99,1.06
			c-0.32,0.38-0.61,0.76-0.85,1.13c-0.24,0.37-0.36,0.68-0.36,0.94c0,0.06,0,0.17,0,0.34c0,0.17-0.06,0.26-0.19,0.26
			c-0.52,0-0.94-0.07-1.26-0.21c-0.32-0.14-0.49-0.47-0.49-0.98c0-1.47,0.54-2.84,1.63-4.09c1.08-1.25,2.43-2.33,4.02-3.24
			c1.6-0.91,3.31-1.62,5.14-2.13c1.83-0.51,3.47-0.77,4.92-0.77c1.87,0,3.64,0.42,5.29,1.26c1.65,0.84,3.09,1.91,4.32,3.21
			c1.23,1.31,2.19,2.76,2.89,4.36c0.69,1.6,1.04,3.19,1.04,4.75c0,0.34-0.03,0.86-0.1,1.55c-0.07,0.7-0.16,1.41-0.29,2.13
			c-0.13,0.72-0.3,1.4-0.51,2.02c-0.21,0.62-0.45,1.05-0.7,1.28v0.17c0.1,0,0.12,0.06,0.07,0.17c-0.05,0.11-0.09,0.2-0.12,0.26
			l-0.78,1.49c-0.39,0.65-0.78,1.29-1.19,1.92c-0.4,0.62-0.85,1.23-1.33,1.83c-0.97,1.22-2.09,2.38-3.37,3.47
			c-1.28,1.09-2.67,2.05-4.17,2.87c-1.5,0.82-3.09,1.48-4.75,1.96C17.64,35.98,15.94,36.22,14.19,36.22z M8.37,9.06
			C8.5,8.97,8.6,8.87,8.69,8.76C8.77,8.65,8.84,8.53,8.9,8.42c0.49-0.65,1.05-1.23,1.7-1.72c0.65-0.5,1.23-1.07,1.75-1.72
			c-0.26,0.06-0.6,0.26-1.02,0.6c-0.42,0.34-0.83,0.73-1.24,1.17C9.69,7.18,9.32,7.62,9,8.06C8.68,8.5,8.47,8.83,8.37,9.06z
			 M21.66,4.5c-0.19,0.09-0.58,0.48-1.16,1.19s-1.2,1.51-1.84,2.38c-0.65,0.88-1.24,1.73-1.79,2.56c-0.55,0.82-0.92,1.38-1.12,1.66
			c-0.74,1.19-1.54,2.63-2.38,4.32c-0.84,1.69-1.62,3.46-2.33,5.3c-0.71,1.85-1.29,3.65-1.75,5.43c-0.45,1.77-0.68,3.34-0.68,4.71
			c0,0.17,0.02,0.3,0.05,0.38c0.13-0.28,0.21-0.56,0.24-0.83c0.03-0.27,0.08-0.55,0.15-0.83c0.45-2.53,1.14-5.03,2.06-7.51
			c0.92-2.48,1.95-4.9,3.08-7.26c0.9-1.9,1.95-3.73,3.13-5.49c1.18-1.76,2.45-3.48,3.81-5.15c0.06-0.06,0.17-0.18,0.32-0.38
			c0.15-0.2,0.22-0.33,0.22-0.38L21.66,4.5L21.66,4.5z M9,11.02H8.95L8.91,11.1v0.09h0.05L9,11.02z M9.63,10.08
			c0.29-0.31,0.58-0.64,0.87-1c0.29-0.35,0.56-0.7,0.82-1.04c-0.32,0.23-0.63,0.55-0.92,0.96C10.12,9.41,9.86,9.77,9.63,10.08z
			 M25.59,4.72c-0.06,0.17-0.16,0.42-0.29,0.74c-0.13,0.33-0.26,0.66-0.39,1c-0.13,0.34-0.23,0.67-0.32,0.98
			c-0.08,0.31-0.12,0.55-0.12,0.72v0.04c0.23-0.14,0.36-0.32,0.41-0.53c0.05-0.21,0.15-0.42,0.32-0.62c-0.1,0.8-0.39,1.84-0.87,3.13
			c-0.49,1.29-1.09,2.72-1.82,4.3c-0.73,1.57-1.53,3.21-2.4,4.92c-0.87,1.7-1.74,3.35-2.59,4.94c-0.86,1.59-1.66,3.06-2.4,4.41
			c-0.74,1.35-1.34,2.45-1.79,3.3c0.26-0.03,0.5-0.09,0.73-0.17c0.23-0.09,0.45-0.19,0.68-0.3c1.91-0.88,3.75-2.1,5.53-3.66
			c1.78-1.56,3.37-3.29,4.78-5.17c1.41-1.89,2.58-3.86,3.52-5.92c0.94-2.06,1.52-4.02,1.75-5.9v-0.47c0-0.57-0.11-1.19-0.32-1.85
			c-0.21-0.67-0.51-1.28-0.9-1.85c-0.39-0.57-0.87-1.04-1.46-1.43C27.04,4.95,26.36,4.74,25.59,4.72z M14.39,13.78l0.19-0.26
			l-0.15,0.13L14.39,13.78z M15.4,18.68c0.49-0.6,0.96-1.28,1.43-2.06c0.47-0.78,0.92-1.59,1.36-2.43c0.44-0.84,0.86-1.67,1.26-2.51
			c0.4-0.84,0.78-1.6,1.14-2.28c-0.94,1.53-1.85,3.06-2.74,4.58C16.96,15.49,16.15,17.06,15.4,18.68z M15.99,11.4
			c0.55-0.79,1.11-1.58,1.67-2.36c0.56-0.78,1.16-1.55,1.77-2.32c0.19-0.23,0.4-0.46,0.61-0.7c0.21-0.24,0.38-0.49,0.51-0.74
			c-0.1,0.09-0.39,0.43-0.87,1.04c-0.49,0.61-0.99,1.28-1.53,2c-0.53,0.72-1.03,1.39-1.48,2c-0.45,0.61-0.7,0.97-0.73,1.09
			L15.99,11.4L15.99,11.4z M16.08,25.58l-0.15,0.13l0.05,0.09l0.1-0.13L16.08,25.58L16.08,25.58z M22.39,12.93
			c-0.19,0.31-0.45,0.76-0.78,1.34c-0.32,0.58-0.68,1.23-1.07,1.96c-0.39,0.72-0.78,1.48-1.19,2.28c-0.4,0.8-0.78,1.54-1.14,2.24
			c-0.36,0.7-0.66,1.33-0.9,1.89c-0.24,0.57-0.38,0.98-0.41,1.23c0.68-0.99,1.28-2.04,1.79-3.15c0.52-1.11,1.05-2.2,1.6-3.28
			c0.03-0.09,0.1-0.24,0.22-0.47c0.11-0.23,0.23-0.47,0.36-0.72c0.13-0.26,0.25-0.49,0.36-0.7c0.11-0.21,0.2-0.35,0.27-0.4
			c0.1-0.28,0.23-0.55,0.39-0.79c0.16-0.24,0.24-0.52,0.24-0.83c0.35-0.48,0.65-1.02,0.87-1.62c0.23-0.6,0.4-1.18,0.53-1.75
			c-0.1,0.17-0.21,0.38-0.34,0.62c-0.13,0.24-0.25,0.49-0.36,0.74c-0.11,0.26-0.21,0.51-0.29,0.77
			C22.48,12.55,22.42,12.76,22.39,12.93z M21.61,12c-0.19,0.28-0.51,0.81-0.95,1.58c-0.44,0.77-0.88,1.57-1.33,2.43
			c-0.45,0.85-0.86,1.65-1.24,2.41c-0.37,0.75-0.59,1.27-0.66,1.55c0.94-1.19,1.73-2.48,2.38-3.85C20.46,14.73,21.06,13.36,21.61,12
			z M19.82,30.39c0.32,0,0.77-0.23,1.33-0.7c0.57-0.47,1.16-1,1.77-1.6c0.61-0.6,1.17-1.19,1.67-1.79c0.5-0.6,0.83-1.02,0.99-1.28
			c-0.39,0.26-0.76,0.59-1.12,1c-0.36,0.41-0.7,0.77-1.02,1.09c-0.58,0.57-1.2,1.11-1.84,1.64C20.96,29.27,20.37,29.82,19.82,30.39z
			 M22.87,5.31l0.1,0.04l0.29-0.21L22.87,5.31z M24.47,25.58c-0.13,0.11-0.36,0.32-0.68,0.62c-0.32,0.3-0.49,0.52-0.49,0.66
			c0.03-0.03,0.11-0.11,0.24-0.23c0.13-0.13,0.26-0.26,0.39-0.4c0.13-0.14,0.25-0.27,0.36-0.38c0.11-0.11,0.17-0.18,0.17-0.21
			L24.47,25.58L24.47,25.58z M23.7,9.95v0.04l0.24-0.47V9.44L23.7,9.95z M24.23,8.89c-0.1,0-0.18,0.06-0.24,0.17
			c-0.06,0.11-0.1,0.2-0.1,0.26h0.05l0.24-0.17l0.1-0.26H24.23z M24.67,29.03c0.49-0.37,0.98-0.77,1.48-1.21
			c0.5-0.44,0.9-0.92,1.19-1.43c-0.52,0.4-0.98,0.82-1.38,1.28C25.55,28.12,25.12,28.57,24.67,29.03z M25.39,6.42
			c-0.03-0.03-0.05-0.1-0.05-0.21l0.05-0.04V6.42z M25.39,5.86l0.1-0.13l0.1,0.13l-0.1,0.17L25.39,5.86z M31.84,25.83
			c-1,0.99-2.02,1.98-3.06,2.96c-1.03,0.98-2.02,1.99-2.96,3.04c0.29-0.11,0.67-0.35,1.14-0.72c0.47-0.37,0.95-0.78,1.46-1.23
			c0.5-0.45,0.97-0.9,1.41-1.34c0.44-0.44,0.77-0.79,0.99-1.04c0-0.23,0.15-0.49,0.46-0.79C31.59,26.41,31.78,26.12,31.84,25.83z
			 M26.51,30.01c0.13-0.03,0.38-0.2,0.75-0.51c0.37-0.31,0.76-0.66,1.16-1.04c0.4-0.38,0.76-0.75,1.07-1.11
			c0.31-0.35,0.48-0.6,0.51-0.74c-0.23,0.2-0.51,0.44-0.85,0.72c-0.34,0.28-0.68,0.59-1.02,0.92c-0.34,0.33-0.66,0.64-0.95,0.94
			C26.9,29.47,26.67,29.75,26.51,30.01z M31.99,25.66c0.16-0.14,0.31-0.35,0.44-0.64L31.99,25.66z M32.86,24.47
			c-0.13,0-0.23,0.09-0.29,0.26c0.06,0,0.1-0.01,0.1-0.04l0.44-0.13L32.86,24.47z M35,20.68c-0.16,0.23-0.37,0.58-0.63,1.04
			c-0.26,0.47-0.4,0.82-0.44,1.04l0.05,0.13c0.03-0.09,0.1-0.23,0.22-0.45c0.11-0.21,0.23-0.43,0.34-0.66
			c0.11-0.23,0.22-0.43,0.32-0.62c0.1-0.18,0.15-0.3,0.15-0.36L35,20.68L35,20.68z M35.04,20.3v0.09l0.19-0.09l-0.1-0.09L35.04,20.3
			z M35.48,19.28v0.09l0.05-0.21L35.48,19.28z M36.11,16.94v0.09l0.19-0.17l-0.05-0.13L36.11,16.94z"/>
		<path class="st0" d="M36.01,27.2c0.1,0.03,0.15,0.11,0.15,0.26c0,0.4-0.15,0.75-0.44,1.06l-0.39,0.89
			c0.06-0.09,0.22-0.27,0.46-0.55c0.24-0.28,0.49-0.58,0.73-0.89c0.24-0.31,0.46-0.59,0.66-0.83c0.19-0.24,0.29-0.39,0.29-0.45
			v-0.04c-0.16,0.06-0.31,0.14-0.44,0.26c-0.13,0.11-0.26,0.23-0.39,0.34l-0.63-0.47c1.36-0.91,2.82-1.69,4.39-2.34
			c1.57-0.65,3.23-0.98,4.97-0.98c0.45,0,0.89,0.08,1.31,0.23c0.42,0.16,0.74,0.42,0.97,0.79l-0.34,0.13
			c-0.07,0.06-0.28,0.13-0.63,0.21c-0.36,0.09-0.74,0.17-1.14,0.26s-0.79,0.16-1.16,0.23c-0.37,0.07-0.62,0.11-0.75,0.11
			c-0.62,0.28-1.24,0.61-1.87,0.98c-0.63,0.37-1.2,0.78-1.72,1.23c-0.52,0.45-0.94,0.96-1.26,1.53c-0.32,0.57-0.49,1.19-0.49,1.87
			c0,0.45,0.22,0.95,0.66,1.49c0.44,0.54,0.83,0.96,1.19,1.28c1.62-0.03,3.18-0.23,4.7-0.6c1.52-0.37,2.88-0.92,4.07-1.64
			c1.19-0.72,2.15-1.66,2.86-2.81c0.71-1.15,1.07-2.53,1.07-4.15c0-0.88-0.2-1.67-0.61-2.36c-0.4-0.7-0.91-1.35-1.53-1.98
			c-0.61-0.62-1.29-1.23-2.01-1.81c-0.73-0.58-1.4-1.2-2.01-1.85c-0.61-0.65-1.12-1.36-1.53-2.11c-0.4-0.75-0.61-1.61-0.61-2.58
			c0-0.09,0.01-0.18,0.02-0.28c0.02-0.1,0.02-0.21,0.02-0.32c0.06-0.48,0.35-1.17,0.85-2.06c0.5-0.89,1.11-1.78,1.82-2.66
			c0.71-0.88,1.45-1.65,2.21-2.32c0.76-0.67,1.43-1,2.01-1v0.04l0.29-0.13c0.19-0.31,0.6-0.62,1.21-0.94
			c0.61-0.31,1.3-0.59,2.06-0.83c0.76-0.24,1.5-0.43,2.23-0.58c0.73-0.14,1.29-0.21,1.67-0.21c0.52,0,1.06,0.11,1.63,0.34
			c0.57,0.23,1.08,0.53,1.55,0.89c0.47,0.37,0.87,0.78,1.21,1.23c0.34,0.45,0.57,0.89,0.7,1.32l0.05,0.13
			c-0.03,0.26-0.27,0.73-0.7,1.43c-0.44,0.7-0.94,1.41-1.5,2.15c-0.57,0.74-1.13,1.4-1.7,1.98c-0.57,0.58-0.98,0.87-1.24,0.87
			c0-0.03,0.07-0.11,0.22-0.26c0.15-0.14,0.32-0.3,0.51-0.47c0.19-0.17,0.38-0.33,0.56-0.47c0.18-0.14,0.3-0.24,0.36-0.3
			c-0.19,0.06-0.44,0.21-0.73,0.47c-0.29,0.26-0.5,0.45-0.63,0.6c-0.1,0.06-0.29,0.17-0.58,0.34c-0.29,0.17-0.49,0.26-0.58,0.26
			c-0.03,0-0.07-0.01-0.1-0.02c-0.03-0.01-0.07-0.02-0.1-0.02c0.03-0.11,0.09-0.22,0.17-0.32c0.08-0.1,0.17-0.19,0.27-0.28
			l-1.02,0.68c0.16-0.28,0.41-0.64,0.75-1.09c0.34-0.44,0.54-0.77,0.61-1l0.15-0.17c-0.1,0.09-0.22,0.22-0.36,0.4
			c-0.15,0.19-0.31,0.36-0.49,0.53c-0.18,0.17-0.35,0.33-0.51,0.47c-0.16,0.14-0.31,0.23-0.44,0.26c0.65-0.99,1.26-1.99,1.84-3
			c0.58-1.01,1.15-2.02,1.7-3.04c-0.94,0-1.8,0.27-2.59,0.81c-0.79,0.54-1.51,1.18-2.16,1.92C55.16,8,54.57,8.78,54.03,9.61
			c-0.53,0.82-0.99,1.53-1.38,2.13c-0.06,0.14-0.16,0.26-0.29,0.36c-0.13,0.1-0.28,0.16-0.44,0.19l0.15,0.09
			c0.06-0.03,0.14-0.03,0.22-0.02c0.08,0.01,0.1,0.06,0.07,0.15l-0.24,0.21l-0.15,0.3c0.03,0.17,0.05,0.34,0.05,0.51s0,0.34,0,0.51
			c0,0.62,0.19,1.09,0.58,1.41c0.39,0.31,0.82,0.64,1.31,0.98c0.81,0.57,1.65,1.24,2.52,2.02c0.87,0.78,1.67,1.63,2.4,2.55
			c0.73,0.92,1.33,1.87,1.8,2.85c0.47,0.98,0.7,1.94,0.7,2.87c0,0.34-0.02,0.7-0.05,1.06c-0.03,0.37-0.11,0.71-0.24,1.02
			c-0.58,1.51-1.46,2.79-2.62,3.85c-1.16,1.06-2.49,1.93-3.98,2.6c-1.49,0.67-3.08,1.16-4.78,1.47c-1.7,0.31-3.39,0.47-5.07,0.47
			c-1.13,0-2.3-0.09-3.52-0.28c-1.21-0.19-2.34-0.5-3.37-0.96c-1.03-0.45-1.88-1.08-2.55-1.87c-0.66-0.8-0.99-1.8-0.99-3.02
			c0-0.77,0.16-1.49,0.49-2.17c0.32-0.68,0.76-1.32,1.31-1.92L36.01,27.2z M36.94,28.86c0.06-0.06,0.11-0.16,0.15-0.3
			c0.03-0.14,0.06-0.24,0.1-0.3c-0.06,0.06-0.11,0.16-0.15,0.3C37,28.7,36.97,28.8,36.94,28.86z M38.25,28.64l0.49-0.68
			c-0.23,0.2-0.4,0.41-0.53,0.64L38.25,28.64z M39.36,27.79v-0.04c-0.42,0.43-0.7,0.81-0.85,1.15s-0.23,0.8-0.27,1.36L39.36,27.79z
			 M49.11,6.89c0.23-0.06,0.42-0.16,0.58-0.32c0.16-0.16,0.32-0.3,0.49-0.45c0.68-0.57,1.4-1.08,2.16-1.53
			c0.76-0.45,1.54-0.91,2.35-1.36c0.16-0.09,0.39-0.22,0.68-0.4c0.29-0.18,0.47-0.35,0.53-0.49l-0.29,0.04l-0.24,0.17
			c-0.23,0-0.68,0.2-1.36,0.6c-0.68,0.4-1.38,0.84-2.11,1.34c-0.73,0.5-1.38,0.99-1.96,1.47c-0.58,0.48-0.89,0.81-0.92,0.98
			C49.08,6.93,49.11,6.91,49.11,6.89z M50.66,5.1c-0.16,0.03-0.43,0.22-0.8,0.58c-0.37,0.35-0.62,0.6-0.75,0.74
			c0.06-0.03,0.17-0.1,0.32-0.21c0.15-0.11,0.3-0.24,0.46-0.38c0.16-0.14,0.32-0.28,0.46-0.43C50.49,5.25,50.6,5.16,50.66,5.1z
			 M54.06,4.8c-0.23,0.48-0.57,0.87-1.04,1.15c-0.47,0.28-0.86,0.62-1.19,1.02c0.58-0.45,1.16-0.89,1.72-1.32
			c0.57-0.43,1.11-0.89,1.63-1.41l-0.39,0.21l-0.34,0.26L54.4,4.63l0.05-0.09H54.3L54.01,4.8H54.06z M53.38,29.54
			c-0.07,0-0.17,0.09-0.32,0.28c-0.15,0.19-0.31,0.38-0.49,0.6c-0.18,0.21-0.34,0.42-0.49,0.62c-0.15,0.2-0.23,0.33-0.27,0.38
			l0.29-0.13c0.26-0.26,0.52-0.52,0.78-0.81C53.15,30.19,53.31,29.88,53.38,29.54z M53.18,28.98c-0.13,0.11-0.24,0.23-0.34,0.36
			c-0.1,0.13-0.16,0.26-0.19,0.4c0.06-0.11,0.17-0.26,0.32-0.43C53.11,29.15,53.18,29.04,53.18,28.98z M55.46,7.18
			c0.13-0.26,0.31-0.48,0.53-0.66c0.23-0.18,0.47-0.36,0.73-0.53c0.26-0.17,0.52-0.34,0.78-0.51c0.26-0.17,0.49-0.35,0.68-0.55
			c-1.23,0.51-2.22,1.21-2.98,2.11c-0.76,0.89-1.48,1.84-2.16,2.83c0.32-0.23,0.58-0.51,0.78-0.85c0.19-0.34,0.45-0.62,0.78-0.85
			c0.03-0.14,0.15-0.32,0.36-0.53C55.16,7.42,55.33,7.27,55.46,7.18z M53.13,5.57c0.1-0.03,0.18-0.13,0.24-0.3L53.13,5.57z
			 M57.16,4.54c-0.13,0.03-0.39,0.19-0.78,0.49c-0.39,0.3-0.8,0.64-1.24,1.02c-0.44,0.38-0.82,0.74-1.16,1.09
			c-0.34,0.34-0.51,0.57-0.51,0.68v0.09c0.74-0.65,1.33-1.18,1.77-1.57c0.44-0.4,0.85-0.77,1.24-1.13
			C56.87,4.85,57.09,4.63,57.16,4.54z M55.61,30.13c-0.07,0.06-0.12,0.12-0.17,0.19c-0.05,0.07-0.09,0.15-0.12,0.23l0.24-0.21
			L55.61,30.13z M60.07,29.11c-0.55,0.68-1.1,1.35-1.65,2c-0.55,0.65-1.03,1.35-1.46,2.09c0.19-0.17,0.47-0.43,0.82-0.77
			c0.35-0.34,0.7-0.71,1.04-1.11s0.63-0.79,0.87-1.17c0.24-0.38,0.36-0.7,0.36-0.96L60.07,29.11L60.07,29.11z M58.52,29.62
			c-0.23,0.34-0.47,0.67-0.73,1c-0.26,0.33-0.5,0.66-0.73,1c0.13-0.03,0.27-0.13,0.44-0.3c0.16-0.17,0.32-0.36,0.46-0.58
			s0.27-0.42,0.39-0.62C58.46,29.94,58.52,29.76,58.52,29.62z M59.44,9.44c-0.13,0.06-0.23,0.14-0.29,0.26h0.05
			c0.03,0,0.06-0.01,0.07-0.02c0.02-0.01,0.04-0.02,0.07-0.02L59.44,9.44z M60.99,27.32c-0.26,0.28-0.43,0.55-0.51,0.81
			c-0.08,0.26-0.2,0.54-0.36,0.85v0.09c0.23,0,0.4-0.13,0.53-0.4c0.13-0.27,0.23-0.48,0.29-0.62c0-0.2,0.05-0.41,0.15-0.64
			L60.99,27.32z M60.41,10.38c0-0.03,0.07-0.13,0.22-0.3c0.15-0.17,0.3-0.34,0.46-0.51c0.16-0.17,0.32-0.33,0.46-0.49
			c0.15-0.16,0.25-0.23,0.32-0.23c0,0.06-0.06,0.16-0.19,0.3c-0.13,0.14-0.28,0.3-0.44,0.47c-0.16,0.17-0.32,0.33-0.49,0.47
			C60.59,10.22,60.47,10.32,60.41,10.38z M60.94,26.51l0.1,0.17l0.05-0.34L60.94,26.51z M62.3,5.14l0.15,0.13l0.1-0.04L62.5,5.1
			L62.3,5.14z"/>
		<path class="st0" d="M65.45,10.97c-0.13,0-0.24-0.08-0.34-0.23c-0.1-0.16-0.19-0.34-0.27-0.55c-0.08-0.21-0.14-0.42-0.17-0.62
			c-0.03-0.2-0.05-0.34-0.05-0.43c0-1.19,0.54-2.29,1.63-3.3c1.08-1.01,2.38-1.89,3.9-2.64c1.52-0.75,3.1-1.36,4.73-1.81
			c1.63-0.45,3-0.75,4.1-0.89c0.65-0.06,1.29-0.1,1.92-0.13c0.63-0.03,1.27-0.04,1.92-0.04c1.19,0,2.26,0.04,3.2,0.11
			c0.94,0.07,1.83,0.2,2.69,0.38c0.86,0.19,1.71,0.44,2.57,0.77c0.86,0.33,1.82,0.73,2.89,1.21c0.1,0.06,0.26,0.13,0.49,0.23
			c0.23,0.1,0.46,0.21,0.7,0.32c0.24,0.11,0.45,0.23,0.63,0.34c0.18,0.11,0.27,0.2,0.27,0.26v0.04l-0.24,0.09
			c0.1,0.11,0.25,0.22,0.46,0.32c0.21,0.1,0.38,0.22,0.51,0.36l-0.1,0.17c0.03,0.23,0.1,0.43,0.19,0.6c0.1,0.17,0.16,0.37,0.19,0.6
			l-0.53,0.51c-0.16,0.03-0.32,0.05-0.49,0.06c-0.16,0.01-0.32,0.02-0.49,0.02c-0.16,0-0.43-0.01-0.8-0.04S94.2,6.61,93.8,6.57
			c-0.4-0.04-0.78-0.09-1.12-0.13c-0.34-0.04-0.57-0.09-0.7-0.15c-0.26,0.06-0.49,0.03-0.68-0.09c-0.19-0.11-0.42-0.17-0.68-0.17
			c-0.68,0-1.35-0.07-2.01-0.21s-1.35-0.21-2.06-0.21c-0.39,0-0.9,0.43-1.53,1.28c-0.63,0.85-1.32,1.94-2.06,3.26
			c-0.74,1.32-1.52,2.77-2.33,4.34c-0.81,1.57-1.58,3.1-2.3,4.58c-0.73,1.48-1.37,2.79-1.94,3.94c-0.57,1.15-0.98,1.95-1.24,2.41
			c-0.03,0.31-0.09,0.6-0.17,0.87s-0.17,0.56-0.27,0.87c-0.19,0.6-0.34,1.21-0.44,1.83c-0.1,0.62-0.19,1.25-0.29,1.87
			c-0.1,0.62-0.22,1.25-0.36,1.87c-0.15,0.62-0.35,1.23-0.61,1.83c-0.03-0.06-0.05-0.14-0.05-0.26c0-0.74,0.06-1.48,0.19-2.21
			c0.13-0.74,0.27-1.47,0.44-2.21c-0.16,0.54-0.32,1.06-0.49,1.57c-0.16,0.51-0.28,1.04-0.34,1.58c-0.06,0.37-0.11,0.74-0.12,1.13
			c-0.02,0.38-0.07,0.76-0.17,1.13l-0.19-0.13c-0.03-0.14-0.06-0.28-0.07-0.4c-0.02-0.13-0.02-0.26-0.02-0.4
			c0-0.68,0.04-1.41,0.12-2.17c0.08-0.77,0.2-1.47,0.36-2.13c0.06-0.17,0.11-0.34,0.15-0.51c0.03-0.17,0.05-0.34,0.05-0.51v-0.04
			l-0.1,0.09c-0.1,0.26-0.19,0.68-0.29,1.28c-0.1,0.6-0.19,1.2-0.27,1.81c-0.08,0.61-0.16,1.16-0.24,1.66
			c-0.08,0.5-0.14,0.79-0.17,0.87l-0.05-0.43l-0.29,0.94h-0.34l-0.29,0.26c0-0.14-0.01-0.26-0.02-0.36
			c-0.02-0.1-0.02-0.22-0.02-0.36c0-0.71,0.02-1.41,0.07-2.09c0.05-0.68,0.07-1.38,0.07-2.09c0-0.09-0.01-0.17-0.02-0.26
			c-0.02-0.09-0.02-0.17-0.02-0.26c-0.13,0.31-0.19,0.74-0.19,1.3c0,0.55-0.01,1.13-0.02,1.72c-0.02,0.6-0.07,1.17-0.15,1.72
			c-0.08,0.55-0.25,0.99-0.51,1.3c-0.42-0.2-0.7-0.44-0.82-0.72c-0.13-0.28-0.23-0.61-0.29-0.98c0,0.23-0.03,0.47-0.1,0.72
			c-0.07,0.26-0.11,0.47-0.15,0.64l-0.29-0.21c-0.65-1.02-0.97-2.14-0.97-3.36c0-1.65,0.23-3.48,0.7-5.51s1.08-4.07,1.84-6.11
			c0.76-2.04,1.63-4.01,2.59-5.9c0.97-1.89,1.97-3.53,3.01-4.92c0.1-0.14,0.32-0.41,0.68-0.81c0.35-0.4,0.73-0.82,1.12-1.26
			c0.39-0.44,0.73-0.85,1.02-1.23c0.29-0.38,0.44-0.62,0.44-0.7V5.7c-1.1,0.03-2.21,0.21-3.32,0.55c-1.12,0.34-2.2,0.77-3.25,1.3
			c-1.05,0.53-2.04,1.12-2.98,1.79c-0.94,0.67-1.78,1.34-2.52,2.02c0.58-0.71,1.27-1.31,2.06-1.81c0.79-0.5,1.51-1.09,2.16-1.77
			c-0.49,0.11-0.94,0.33-1.36,0.66c-0.42,0.33-0.82,0.67-1.19,1.04c-0.37,0.37-0.72,0.72-1.04,1.06c-0.32,0.34-0.63,0.58-0.92,0.72
			l-0.05-0.04l0.15-0.34l-0.05-0.04c-0.13,0.03-0.27,0.06-0.41,0.09c-0.15,0.03-0.28,0.03-0.41,0L65.45,10.97z M72.92,3.18
			c-1.46,0.4-2.73,1.03-3.83,1.89c-1.1,0.87-2.15,1.78-3.15,2.75c1.07-0.6,2.06-1.27,2.98-2.02c0.92-0.75,1.92-1.43,2.98-2.02
			c0.16-0.09,0.33-0.18,0.51-0.28C72.59,3.4,72.76,3.3,72.92,3.18z M69.33,8.08c-0.61,0.31-1.1,0.7-1.46,1.17
			c-0.36,0.47-0.76,0.92-1.21,1.34c0.45-0.4,0.9-0.82,1.33-1.26C68.43,8.89,68.88,8.48,69.33,8.08z M68.22,7.48
			c-0.06,0-0.17,0.06-0.32,0.17c-0.15,0.11-0.29,0.25-0.44,0.4c-0.15,0.16-0.28,0.31-0.41,0.45c-0.13,0.14-0.19,0.23-0.19,0.26V8.8
			c0.23-0.23,0.44-0.45,0.66-0.68S67.96,7.68,68.22,7.48z M81.26,5.44c-0.19,0.03-0.52,0.28-0.97,0.77
			c-0.45,0.48-0.93,1.02-1.43,1.62c-0.5,0.6-0.97,1.18-1.41,1.75c-0.44,0.57-0.72,0.95-0.85,1.15c-0.74,1.08-1.41,2.19-1.99,3.32
			c-0.58,1.14-1.15,2.3-1.7,3.49c-0.23,0.48-0.45,0.96-0.66,1.45c-0.21,0.48-0.45,0.95-0.7,1.41c-0.16,0.23-0.28,0.35-0.34,0.38
			c-0.07,0.03-0.13,0.19-0.19,0.47c-0.06,0.26-0.13,0.48-0.19,0.68c-0.06,0.2-0.18,0.41-0.34,0.64c-0.06,0.06-0.17,0.43-0.32,1.11
			c-0.15,0.68-0.32,1.44-0.51,2.28c-0.19,0.84-0.37,1.65-0.53,2.43c-0.16,0.78-0.28,1.3-0.34,1.55l-0.05-0.04l-0.19,0.21
			c0.16,0.17,0.24,0.41,0.24,0.72c0,0.28-0.02,0.57-0.07,0.85c-0.05,0.28-0.15,0.55-0.32,0.81c0.06,0.03,0.14,0.09,0.22,0.19
			c0.08,0.1,0.15,0.18,0.22,0.23l0.05-0.21c0.52-3.63,1.34-7.18,2.47-10.64c1.13-3.46,2.72-6.8,4.75-10.01
			c0.61-0.96,1.29-1.95,2.04-2.96c0.74-1.01,1.53-1.92,2.38-2.75c0.16-0.14,0.31-0.28,0.44-0.4C81.1,5.8,81.2,5.64,81.26,5.44z
			 M68.51,30.86l0.15,0.13l0.05-0.21l-0.1-0.26L68.51,30.86z M68.65,31.5c0-0.09-0.02-0.16-0.05-0.21h-0.05l-0.05,0.09L68.65,31.5z
			 M68.9,33.2l-0.1-0.09l-0.15,0.09l0.15,0.17L68.9,33.2z M71.42,7.52L71.08,7.7l0.19-0.04L71.42,7.52z M72.34,24.05h-0.19L72,24.34
			l0.05,0.09L72.34,24.05z M72.34,23.41v0.09l0.1,0.13L72.34,23.41z M73.02,28.52l0.29-1.53c-0.06,0.26-0.15,0.53-0.27,0.83
			c-0.11,0.3-0.17,0.58-0.17,0.83v0.09L73.02,28.52z M74.13,24.81l-0.1-0.17c-0.13,0.06-0.24,0.25-0.34,0.58
			c-0.1,0.33-0.16,0.56-0.19,0.7l0.15,0.04L74.13,24.81z M73.7,29.54c-0.07,0.17-0.1,0.28-0.1,0.34
			C73.6,29.82,73.63,29.71,73.7,29.54z M74.33,23.79h-0.05l-0.29,0.51l0.15-0.04L74.33,24L74.33,23.79L74.33,23.79z M74.33,27.11
			c0.65-2.24,1.47-4.43,2.47-6.56c1-2.13,2.12-4.22,3.35-6.26c0.74-1.25,1.49-2.47,2.23-3.66c0.74-1.19,1.53-2.38,2.38-3.58
			c0.16-0.23,0.33-0.47,0.51-0.72c0.18-0.26,0.32-0.52,0.41-0.81c-1.03,0.99-2.06,2.28-3.08,3.85c-1.02,1.57-1.99,3.23-2.91,4.96
			c-0.92,1.73-1.77,3.46-2.55,5.17c-0.78,1.72-1.44,3.23-1.99,4.53c-0.1,0.23-0.19,0.44-0.29,0.64c-0.1,0.2-0.21,0.41-0.34,0.64
			L74.33,27.11z M74.86,22.73l-0.05-0.09l-0.34,0.26l0.19,0.04L74.86,22.73z M83.2,5.61c-0.32,0.34-0.76,0.84-1.31,1.51
			c-0.55,0.67-1.14,1.42-1.77,2.26c-0.63,0.84-1.28,1.72-1.94,2.64c-0.66,0.92-1.25,1.81-1.77,2.66c-0.52,0.85-0.95,1.63-1.29,2.34
			c-0.34,0.71-0.51,1.25-0.51,1.62v0.04h0.05c1.13-2.33,2.42-4.57,3.88-6.73C80,9.8,81.55,7.68,83.2,5.61z M74.91,21.96l-0.1,0.17
			l0.05,0.13l0.19-0.13L74.91,21.96z M75.54,21.02c-0.07,0.03-0.11,0.08-0.15,0.15c-0.03,0.07-0.07,0.13-0.1,0.19l0.15-0.04
			L75.54,21.02z M75.59,20.68c0.19-0.23,0.35-0.48,0.46-0.74c0.11-0.27,0.25-0.55,0.41-0.83c1.23-2.38,2.56-4.7,4-6.94
			c1.44-2.24,2.93-4.47,4.49-6.68c-0.81,0.68-1.66,1.67-2.55,2.98c-0.89,1.31-1.76,2.7-2.62,4.19c-0.86,1.49-1.65,2.96-2.38,4.41
			C76.68,18.51,76.07,19.72,75.59,20.68z"/>
		<path class="st0" d="M91.05,21.51c-0.07,0.15-0.2,0.46-0.39,0.93c-0.18,0.47-0.38,1.03-0.59,1.67c-0.21,0.64-0.43,1.33-0.66,2.05
			c-0.23,0.72-0.45,1.4-0.64,2.03c-0.2,0.63-0.35,1.19-0.48,1.66c-0.12,0.47-0.18,0.78-0.18,0.93c0,0.37,0.07,0.71,0.22,1.03
			l-0.22,0.1l-0.22,0.48l-0.59-0.03l-0.07-0.03l-0.33,0.03l0.07,0.1c-0.12,0-0.24,0-0.35,0.02s-0.23,0.02-0.35,0.02
			c-0.56,0-1.06-0.1-1.49-0.31c-0.43-0.2-0.79-0.47-1.08-0.81c-0.29-0.33-0.51-0.71-0.66-1.14c-0.15-0.43-0.22-0.87-0.22-1.32
			c0-0.47,0.08-1.06,0.26-1.77c0.17-0.71,0.41-1.45,0.72-2.22c0.31-0.77,0.66-1.57,1.06-2.38c0.4-0.82,0.84-1.57,1.3-2.27
			c0.46-0.7,0.95-1.31,1.45-1.82c0.5-0.52,1-0.89,1.49-1.13l0.18,0.29c0,0.13-0.1,0.24-0.29,0.32l-0.11,0.32l-0.11,0.03l-0.59,0.58
			v0.13c-0.05,0.11-0.12,0.21-0.2,0.31c-0.09,0.1-0.13,0.2-0.13,0.31c0,0.02,0.01,0.04,0.02,0.05c0.01,0.01,0.02,0.03,0.02,0.05
			l0.22,0.1l-0.15-0.26l0.04-0.1l0.18-0.06l0.07,0.1v0.16c0.07-0.04,0.11-0.1,0.11-0.18s0-0.16,0-0.24c0.17-0.15,0.35-0.29,0.53-0.4
			c0.18-0.12,0.35-0.26,0.5-0.43c0.05-0.06,0.16-0.19,0.33-0.39c0.17-0.19,0.31-0.29,0.4-0.29c0.05,0,0.07,0.02,0.07,0.06
			c0,0.04-0.01,0.08-0.04,0.1c0.05,0.13,0.07,0.23,0.07,0.29c0,0.13-0.07,0.29-0.2,0.47c-0.13,0.18-0.21,0.38-0.24,0.6l0.11,0.1
			l0.04-0.29l0.18-0.13c0.05-0.13,0.13-0.24,0.24-0.34s0.23-0.18,0.35-0.24c0.05,0.04,0.1,0.1,0.15,0.16
			c0.05,0.06,0.07,0.12,0.07,0.16c0,0.13-0.01,0.22-0.04,0.26l0.04,0.19l0.15,0.1c-0.05,0.11-0.08,0.23-0.09,0.35
			c-0.01,0.13,0.04,0.23,0.16,0.29c0,0.02,0.01,0.04,0.02,0.06c0.01,0.02,0.02,0.05,0.02,0.1c0,0.06-0.02,0.18-0.05,0.34
			c-0.04,0.16-0.09,0.25-0.16,0.27c0,0.04-0.01,0.07-0.02,0.08c-0.01,0.01-0.02,0.04-0.02,0.08c0,0.06,0.01,0.12,0.02,0.18
			c0.01,0.05,0.02,0.11,0.02,0.18l-0.11,0.1l-0.11-0.1c-0.05,0.06-0.09,0.17-0.11,0.32c-0.02,0.15-0.04,0.27-0.04,0.35l0.07,0.06
			h0.04c0.12-0.15,0.21-0.32,0.26-0.52L91.05,21.51z M85.55,22.06l-0.18-0.19l0.11,0.29L85.55,22.06z M86.1,22.67l-0.11,0.13
			l0.04,0.06l0.07-0.13L86.1,22.67L86.1,22.67z M86.54,21.96l-0.07-0.1l-0.11,0.06l0.07,0.06L86.54,21.96z M87.34,20.41l-0.04,0.1
			v0.06L87.34,20.41z M88.52,27.44c-0.22,0.24-0.38,0.56-0.48,0.98c-0.1,0.42-0.17,0.78-0.22,1.08c0.1,0,0.15-0.03,0.15-0.1v-0.03
			l-0.04-0.16c0.05-0.13,0.1-0.21,0.15-0.26c0-0.19,0.07-0.42,0.2-0.69c0.13-0.27,0.23-0.52,0.28-0.76L88.52,27.44z M88,31.08
			l-0.07-0.1l-0.04,0.1l0.04,0.13L88,31.08z M88.26,18.96c0-0.09,0.06-0.18,0.18-0.29c0.12-0.11,0.21-0.19,0.26-0.26
			c0,0.06-0.05,0.17-0.16,0.32C88.43,18.89,88.33,18.96,88.26,18.96z M88.63,27.11l-0.04-0.06l-0.07,0.16l0.04,0.06L88.63,27.11z
			 M93.8,12c0.27,0.24,0.4,0.53,0.4,0.87c0,0.17-0.05,0.38-0.16,0.63c-0.11,0.25-0.26,0.42-0.46,0.53c0.05-0.04,0.04-0.03-0.04,0.03
			c-0.07,0.06-0.16,0.15-0.26,0.26c-0.1,0.13-0.22,0.29-0.37,0.48c-0.12,0.15-0.28,0.28-0.48,0.39c-0.2,0.11-0.38,0.22-0.55,0.32
			l-0.15,0.29l-0.15-0.06c-0.17,0.04-0.29,0.04-0.37,0l-0.18,0.06c-0.22-0.02-0.47-0.1-0.75-0.23c-0.28-0.13-0.48-0.28-0.61-0.45
			V14.9h-0.22c-0.12,0.09-0.23,0.06-0.33-0.06c-0.1-0.13-0.18-0.29-0.26-0.5c-0.07-0.2-0.13-0.41-0.16-0.61
			c-0.04-0.2-0.05-0.34-0.05-0.4c0-0.32,0.08-0.63,0.26-0.93c0.17-0.3,0.4-0.58,0.68-0.82c0.28-0.25,0.6-0.45,0.95-0.6
			c0.35-0.15,0.72-0.23,1.08-0.23c0.42,0,0.77,0.07,1.06,0.21c0.29,0.14,0.6,0.33,0.92,0.56c0.05,0.06,0.09,0.13,0.13,0.19
			c0.04,0.06,0.05,0.13,0.05,0.19L93.8,12L93.8,12z M88.89,26.47l-0.11,0.03L88.7,26.7l0.07-0.03L88.89,26.47z M88.89,20.51v0.06
			l0.04-0.16L88.89,20.51z M89.03,26.02v-0.03l-0.15,0.26v0.1L89,26.28L89.03,26.02z M89.66,24.54c-0.05,0-0.1,0.05-0.17,0.16
			s-0.12,0.23-0.16,0.35c-0.05,0.13-0.1,0.25-0.15,0.37c-0.05,0.12-0.07,0.2-0.07,0.24v0.06c0.05-0.11,0.1-0.21,0.16-0.32
			c0.06-0.11,0.12-0.21,0.16-0.32l0.18-0.19L89.66,24.54z M89.51,19.51l-0.04,0.1l0.07,0.1L89.51,19.51z M89.95,24.37l-0.15-0.29
			l-0.07,0.06l0.04,0.16L89.95,24.37z M89.84,12.23c0.12-0.06,0.35-0.18,0.7-0.34c0.34-0.16,0.54-0.28,0.59-0.37l-0.04-0.06
			C90.6,11.56,90.18,11.82,89.84,12.23z M89.84,23.73l0.04,0.1l0.11-0.1l-0.07-0.13L89.84,23.73z M90.21,23.25l-0.15,0.23l0.04,0.03
			l0.15-0.16L90.21,23.25z M90.61,22.35c-0.07,0-0.13,0.04-0.16,0.13c-0.04,0.09-0.07,0.15-0.09,0.19l0.11,0.26l0.04-0.06
			l-0.04-0.13c0.05-0.15,0.11-0.26,0.18-0.32L90.61,22.35z M90.43,22.18l0.04,0.03l0.11-0.06l-0.07-0.1L90.43,22.18z M91.16,12.23
			c-0.12,0-0.25,0.08-0.39,0.22c-0.14,0.15-0.24,0.26-0.31,0.32c0.12-0.09,0.24-0.17,0.35-0.26C90.92,12.43,91.04,12.34,91.16,12.23
			z M90.76,19.32l0.04,0.1l0.07-0.1l-0.07-0.06L90.76,19.32z M91.05,21.09c0.15-0.17,0.22-0.34,0.22-0.52l0.07-0.06
			c0.05,0.09,0.07,0.17,0.07,0.26c0,0.02-0.01,0.05-0.04,0.1c-0.02,0.04-0.04,0.08-0.04,0.1L91.05,21.09z M91.2,19.38l-0.04-0.29
			l0.15,0.13l-0.15,0.42l-0.04-0.1L91.2,19.38z M91.45,12.87h-0.11l-0.11,0.1L91.27,13L91.45,12.87z M91.31,14.39
			c0.24-0.04,0.46-0.11,0.66-0.21c0.2-0.1,0.34-0.25,0.44-0.47c-0.02,0-0.04,0-0.05-0.02c-0.01-0.01-0.03-0.02-0.05-0.02
			c-0.12,0-0.29,0.1-0.49,0.31C91.59,14.19,91.43,14.32,91.31,14.39z M91.42,20.35l-0.04-0.06l0.07-0.1l0.04,0.06L91.42,20.35z
			 M91.53,12.71c0,0.04,0.02,0.06,0.07,0.06l0.04-0.03l-0.04-0.13L91.53,12.71z M92.33,15.06c0.1-0.06,0.2-0.13,0.29-0.19
			c0.1-0.06,0.17-0.14,0.22-0.23l-0.55,0.39L92.33,15.06z M93.14,14.74c-0.17,0.28-0.42,0.51-0.73,0.68L93.14,14.74z M92.78,11.17
			l0.15-0.06l-0.07-0.03l-0.11,0.03L92.78,11.17z M93.22,12.45h-0.26l-0.04,0.03l-0.07,0.23l0.04,0.13l0.07-0.06l0.04-0.16h0.22
			L93.22,12.45L93.22,12.45z"/>
		<path class="st0" d="M107.82,20.19c-0.02,0-0.06-0.02-0.11-0.06l-0.15,0.42l0.04,0.13l0.15-0.16v-0.1l0.07-0.16
			c0.05,0.06,0.07,0.17,0.07,0.32c0,0.37-0.05,0.72-0.16,1.06c-0.11,0.34-0.23,0.68-0.35,1l-0.04,0.13h-0.07l-0.18,0.1l0.07,0.1
			l-0.11,0.32l0.04,0.1l0.11,0.1l-0.29,0.13v0.1c0.02,0.04,0.05,0.08,0.07,0.11c0.02,0.03,0.04,0.07,0.04,0.11
			c0,0.06-0.01,0.11-0.04,0.13l-0.22,0.13c-0.03,0.28-0.11,0.53-0.26,0.76c-0.15,0.23-0.24,0.48-0.29,0.76l-0.29,0.32
			c-0.02,0.15-0.09,0.26-0.2,0.32c-0.11,0.06-0.16,0.17-0.16,0.32v0.29l0.11-0.1c-0.05,0.13-0.1,0.3-0.16,0.5
			c-0.06,0.2-0.14,0.36-0.24,0.47c-0.24,0.64-0.49,1.28-0.75,1.92c-0.26,0.63-0.54,1.26-0.86,1.89l0.04,0.19
			c0.05-0.06,0.09-0.13,0.11-0.21c0.02-0.08,0.05-0.14,0.07-0.21l0.15-0.03l0.11-0.35l0.07-0.06c0.12-0.39,0.3-0.75,0.53-1.09
			s0.39-0.71,0.46-1.09l0.18-0.23l-0.04,0.06c-0.02,0.34-0.12,0.7-0.28,1.06c-0.16,0.37-0.36,0.68-0.61,0.93
			c-0.07,0.19-0.18,0.44-0.31,0.74c-0.14,0.3-0.2,0.55-0.2,0.74c0,0.06,0.01,0.11,0.04,0.13l-0.07,0.19l-0.04-0.06l-0.18,0.1
			l-0.33-0.1c-0.1,0.06-0.19,0.06-0.28-0.02c-0.09-0.08-0.15-0.15-0.2-0.21v0.13c0,0.04,0.01,0.13,0.04,0.26
			c0.02,0.13-0.02,0.19-0.15,0.19c-0.44,0-0.83-0.12-1.17-0.37c-0.34-0.25-0.64-0.56-0.88-0.93c-0.25-0.38-0.43-0.77-0.55-1.18
			c-0.12-0.41-0.18-0.77-0.18-1.09c0-0.82,0.14-1.68,0.42-2.59s0.56-1.76,0.82-2.53c-0.1,0.04-0.21,0.12-0.35,0.23
			c-0.14,0.11-0.27,0.24-0.4,0.39c-0.13,0.15-0.27,0.3-0.4,0.43c-0.13,0.14-0.24,0.24-0.31,0.31c0.29-0.39,0.61-0.76,0.96-1.11
			c0.34-0.35,0.65-0.74,0.92-1.14c-0.22,0.19-0.56,0.55-1.01,1.06c-0.45,0.52-0.92,1.05-1.4,1.61c-0.48,0.56-0.91,1.06-1.3,1.51
			c-0.39,0.45-0.64,0.71-0.73,0.77v-0.39l-0.44,0.61v0.03l0.37-0.06c-0.1,0.17-0.24,0.38-0.42,0.63c-0.18,0.25-0.3,0.46-0.35,0.63
			l0.55-0.58c-0.1,0.13-0.28,0.38-0.55,0.74c-0.27,0.37-0.56,0.74-0.88,1.13c-0.32,0.39-0.63,0.73-0.94,1.03
			c-0.31,0.3-0.53,0.45-0.68,0.45l-0.04-0.03l-0.22,0.19l-0.07-0.1c-0.02-0.02-0.06-0.03-0.11-0.03c-0.1,0-0.18,0.03-0.26,0.1
			c-0.07,0.06-0.16,0.1-0.26,0.1c-0.1,0-0.15-0.04-0.16-0.11c-0.01-0.08-0.02-0.13-0.02-0.18c0-0.04-0.01-0.08-0.02-0.11
			c-0.01-0.03-0.01-0.07,0.02-0.11c-0.05,0.11-0.11,0.25-0.18,0.42c-0.07,0.17-0.17,0.26-0.29,0.26c-0.02,0-0.04-0.01-0.05-0.02
			c-0.01-0.01-0.03-0.02-0.05-0.02c-0.12-0.15-0.18-0.32-0.18-0.52c0-0.11-0.01-0.19-0.04-0.26c-0.05,0.06-0.09,0.14-0.11,0.22
			c-0.02,0.09-0.06,0.17-0.11,0.26c-0.2-0.04-0.3-0.21-0.31-0.5c-0.01-0.29-0.02-0.51-0.02-0.66c0-0.62,0.02-1.25,0.07-1.89
			c0.05-0.63,0.11-1.26,0.18-1.89c0.05-0.32,0.17-0.81,0.37-1.45c0.2-0.64,0.45-1.35,0.77-2.13c0.32-0.77,0.68-1.57,1.08-2.4
			c0.4-0.83,0.82-1.58,1.25-2.26c0.43-0.68,0.86-1.23,1.3-1.66c0.44-0.43,0.86-0.64,1.25-0.64c0.05,0,0.09,0,0.13,0.02
			c0.04,0.01,0.08,0.02,0.13,0.02c-0.34,0.54-0.69,1.06-1.05,1.56c-0.36,0.51-0.69,1.04-1.01,1.6c0.32-0.28,0.56-0.6,0.73-0.97
			c0.17-0.36,0.45-0.67,0.84-0.9c0.05-0.06,0.12-0.16,0.2-0.27c0.09-0.12,0.18-0.24,0.28-0.37c0.1-0.13,0.2-0.24,0.31-0.32
			c0.11-0.09,0.21-0.13,0.31-0.13c0.05,0,0.09,0.01,0.11,0.02c0.02,0.01,0.06,0.02,0.11,0.02c-0.02,0.09-0.05,0.18-0.07,0.29
			c-0.02,0.11-0.01,0.19,0.04,0.26l0.11-0.03l0.26-0.26l0.26,0.35c0.12,0.02,0.21,0.13,0.28,0.34c0.06,0.2,0.09,0.35,0.09,0.44
			c0,0.17-0.03,0.41-0.09,0.72c-0.06,0.31-0.14,0.55-0.24,0.73l-0.04,0.23c0.12,0,0.2-0.1,0.24-0.31c0.04-0.2,0.05-0.35,0.05-0.43
			l0.11-0.16c0.02,0.09,0.04,0.2,0.04,0.35s-0.03,0.33-0.09,0.53c-0.06,0.2-0.14,0.41-0.22,0.63c-0.09,0.22-0.17,0.43-0.26,0.64
			c-0.09,0.22-0.15,0.4-0.2,0.55c0.51-0.41,0.98-0.82,1.4-1.22c0.42-0.41,0.84-0.81,1.27-1.19c0.43-0.39,0.89-0.75,1.38-1.08
			c0.49-0.33,1.06-0.64,1.73-0.92h0.81c0,0.06,0.01,0.12,0.02,0.18c0.01,0.05,0.03,0.11,0.05,0.18c0.19,0,0.34,0.01,0.44,0.03
			l0.07,0.03c0.12,0,0.26,0.05,0.42,0.16c0.16,0.11,0.31,0.24,0.46,0.39c0.15,0.15,0.28,0.3,0.4,0.45c0.12,0.15,0.22,0.27,0.29,0.35
			c0.05,0.22,0.07,0.38,0.07,0.48c0,0.04-0.01,0.09-0.02,0.13c-0.01,0.04-0.02,0.09-0.02,0.13l0.07-0.03l0.04,0.1L107.82,20.19z
			 M92.08,30.63c0-0.02,0.01-0.06,0.04-0.11c0.02-0.05,0.04-0.09,0.04-0.11v-0.1l-0.11,0.22L92.08,30.63z M93.18,30.11
			c0.15-0.26,0.3-0.57,0.46-0.95c0.16-0.38,0.31-0.78,0.44-1.21c0.13-0.43,0.26-0.85,0.37-1.26c0.11-0.41,0.21-0.77,0.31-1.09
			c-0.29,0.73-0.6,1.47-0.92,2.22C93.52,28.57,93.3,29.34,93.18,30.11z M95.05,24.95c-0.05,0.04-0.07,0.1-0.07,0.16
			c0,0.06-0.02,0.12-0.07,0.16l0.07-0.03L95.05,24.95z M95.82,30.24h-0.11l0.04,0.03L95.82,30.24z M95.86,19.48l0.07-0.13L96,19.32
			l-0.04-0.03l-0.11,0.13V19.48z M96.26,29.59l-0.15,0.06l0.04,0.1l0.11-0.1V29.59z M96.3,28.95l-0.15,0.13l0.04,0.06l0.15-0.13
			L96.3,28.95z M96.23,25.57c0.17-0.3,0.32-0.61,0.46-0.92c0.13-0.31,0.26-0.63,0.39-0.95c-0.05,0.11-0.12,0.25-0.22,0.43
			c-0.1,0.18-0.2,0.37-0.29,0.55c-0.1,0.18-0.18,0.35-0.24,0.5s-0.09,0.26-0.09,0.32L96.23,25.57L96.23,25.57z M96.81,25.7
			c-0.07,0.11-0.17,0.27-0.29,0.48c-0.12,0.22-0.18,0.38-0.18,0.48c0.02,0,0.06-0.05,0.11-0.14c0.05-0.1,0.1-0.2,0.17-0.31
			c0.06-0.11,0.11-0.21,0.15-0.31C96.79,25.81,96.81,25.74,96.81,25.7z M97,26.73l-0.11,0.23c0.05-0.04,0.09-0.09,0.13-0.15
			c0.04-0.05,0.08-0.1,0.13-0.14L97,26.73z M96.92,28.79c0.07-0.11,0.22-0.31,0.44-0.6c0.22-0.29,0.46-0.59,0.72-0.9
			c0.26-0.31,0.49-0.6,0.72-0.85c0.22-0.26,0.38-0.42,0.48-0.48c-0.24,0.43-0.54,0.81-0.88,1.14c-0.34,0.33-0.65,0.7-0.92,1.11
			c-0.05,0.09-0.1,0.22-0.15,0.39c-0.05,0.17-0.15,0.26-0.29,0.26L96.92,28.79z M97.11,25.05L97,25.15l0.07,0.06l0.07-0.1
			L97.11,25.05z M97.11,23.41l0.04,0.06l0.11-0.1v-0.06L97.11,23.41z M97.14,26.47c0,0.04,0.04,0.06,0.11,0.06l0.04-0.06l-0.04-0.06
			L97.14,26.47z M97.73,26.99c-0.1,0.09-0.18,0.18-0.24,0.27c-0.06,0.1-0.13,0.2-0.2,0.31C97.48,27.44,97.63,27.24,97.73,26.99z
			 M99.38,22.35c-0.22,0.41-0.48,0.8-0.79,1.16c-0.31,0.37-0.57,0.75-0.79,1.16c0.68-0.84,1.41-1.68,2.17-2.51s1.59-1.6,2.5-2.29
			c0.2-0.13,0.37-0.26,0.53-0.4c0.16-0.14,0.3-0.29,0.42-0.47h-0.15l-0.18,0.19c-0.42,0.11-0.77,0.3-1.06,0.58
			c-0.29,0.28-0.58,0.58-0.86,0.9c-0.28,0.32-0.56,0.64-0.82,0.95C100.06,21.93,99.75,22.17,99.38,22.35z M99.09,20.67
			c-0.27,0.37-0.49,0.78-0.68,1.26c-0.18,0.47-0.35,0.92-0.49,1.35c0.07-0.06,0.16-0.21,0.28-0.45c0.11-0.24,0.22-0.49,0.35-0.77
			c0.12-0.28,0.23-0.55,0.33-0.82C98.96,20.97,99.04,20.78,99.09,20.67z M98.32,18.29c-0.05,0.06-0.11,0.13-0.16,0.19
			c-0.06,0.06-0.13,0.13-0.2,0.19c0.17-0.06,0.29-0.17,0.37-0.32V18.29z M98.06,26.57c0.07-0.04,0.14-0.11,0.2-0.19
			c0.06-0.09,0.12-0.15,0.16-0.19c-0.07,0.04-0.14,0.1-0.2,0.18C98.16,26.43,98.11,26.5,98.06,26.57z M98.35,25.05
			c0.07,0,0.13-0.04,0.18-0.11c0.05-0.07,0.07-0.14,0.07-0.21h-0.07l-0.11,0.22l-0.11,0.1L98.35,25.05L98.35,25.05z M99.75,24.54
			c-0.27,0.17-0.51,0.41-0.73,0.73c-0.22,0.31-0.39,0.59-0.52,0.82c0.17-0.13,0.31-0.28,0.4-0.45c0.1-0.17,0.24-0.31,0.44-0.42
			L99.75,24.54z M98.72,24.6l0.11-0.06l-0.11-0.1l-0.11,0.1L98.72,24.6z M99.12,20.41v0.16l0.04-0.16H99.12z M99.64,25.47l0.04,0.06
			c-0.1,0.13-0.23,0.23-0.4,0.29L99.64,25.47z M99.71,18.99l0.11-0.16l0.07,0.1l-0.11,0.16L99.71,18.99z M100.7,23.47
			c-0.1,0.06-0.18,0.14-0.26,0.24c-0.07,0.1-0.11,0.2-0.11,0.31L100.7,23.47z M100.85,23.38c0.05,0,0.09-0.04,0.13-0.13
			c0.04-0.09,0.08-0.15,0.13-0.19L100.85,23.38z M101.18,21.8l0.04,0.03l0.07-0.06l-0.04-0.06L101.18,21.8z M101.22,22.89
			c0.05-0.02,0.12-0.07,0.22-0.15c0.1-0.07,0.2-0.16,0.31-0.26c0.11-0.1,0.2-0.19,0.28-0.27c0.07-0.09,0.11-0.15,0.11-0.19
			c-0.05,0-0.12,0.04-0.2,0.11c-0.09,0.08-0.18,0.16-0.28,0.26c-0.1,0.1-0.19,0.19-0.28,0.29C101.3,22.78,101.24,22.85,101.22,22.89
			z M101.25,27.5l0.15-0.13l-0.11-0.1l-0.07,0.13L101.25,27.5z M101.4,28.53l-0.07-0.03h-0.04v0.03l0.04,0.06L101.4,28.53z
			 M101.62,28.37l0.04-0.03l-0.15-0.1l-0.11,0.03L101.62,28.37z M101.8,28.56h-0.18l0.04,0.03L101.8,28.56z M102.39,26.28
			l-0.11,0.06l0.04,0.13l0.07-0.06V26.28z M102.46,29.59l0.11-0.03h-0.15L102.46,29.59z M102.61,29.43l0.07-0.06l-0.18-0.13
			L102.61,29.43z M102.61,32.27l-0.11,0.03l0.11,0.16l0.04-0.06L102.61,32.27z M102.76,28.69c-0.07,0.06-0.11,0.14-0.11,0.23
			l0.11-0.13V28.69z M102.83,24.66l-0.07-0.06l-0.07,0.06l0.07,0.06L102.83,24.66z M103.46,26.79c-0.05,0.13-0.14,0.24-0.28,0.32
			c-0.13,0.09-0.2,0.19-0.2,0.32h0.18c-0.1,0.13-0.18,0.26-0.26,0.4c-0.07,0.14-0.15,0.29-0.22,0.43l0.11,0.16
			c0.02,0,0.06,0.01,0.11,0.03c0.05,0.02,0.09,0.03,0.11,0.03h0.22c-0.02-0.04-0.06-0.09-0.11-0.13c-0.05-0.04-0.07-0.09-0.07-0.13
			s0.02-0.1,0.05-0.16c0.04-0.06,0.08-0.12,0.13-0.16c-0.05-0.09-0.07-0.15-0.07-0.19c0-0.13,0.05-0.27,0.15-0.44
			C103.41,27.13,103.46,26.96,103.46,26.79z M102.76,24.31h-0.04l0.07,0.19v-0.16L102.76,24.31z M102.79,28.6
			c0.05,0.04,0.1,0.06,0.15,0.06c0-0.02-0.04-0.06-0.11-0.13L102.79,28.6z M103.38,31.04h0.04c0-0.06-0.06-0.13-0.18-0.19l0.04,0.13
			L103.38,31.04z M103.42,22.44l0.07-0.19l-0.07-0.16V22.44z M104.19,28.82c-0.03,0-0.07,0.05-0.13,0.15
			c-0.06,0.1-0.12,0.21-0.16,0.34c-0.05,0.13-0.1,0.25-0.16,0.35c-0.06,0.11-0.1,0.18-0.13,0.23l0.04,0.19
			c-0.05,0.04-0.1,0.12-0.15,0.24c-0.05,0.12-0.07,0.21-0.07,0.27v0.19c0.15-0.3,0.31-0.61,0.48-0.93s0.28-0.64,0.33-0.97
			L104.19,28.82z M103.53,26.31l0.04,0.16l0.11-0.19l0.04,0.03l-0.04,0.13l0.15-0.03c0-0.13-0.07-0.21-0.22-0.26L103.53,26.31z
			 M103.6,18.83l0.11,0.1l0.04-0.06l-0.07-0.06L103.6,18.83z M103.67,26.02h0.04l0.22-0.19L103.67,26.02z M103.79,21.35v0.1
			l0.04,0.06L103.79,21.35z M103.9,25.54v0.03l0.15-0.1l0.04-0.1l-0.07-0.1L103.9,25.54z M103.93,28.76l0.04,0.1l0.11-0.1
			l-0.04-0.06L103.93,28.76z M104.26,24.89c0.02-0.06,0.04-0.15,0.04-0.26L104.26,24.89z M104.3,28.02l-0.04,0.03
			c0.02,0.04,0.05,0.1,0.09,0.16c0.04,0.06,0.08,0.1,0.13,0.1l0.04-0.03L104.3,28.02z M104.96,27.21l-0.04-0.22l-0.15-0.1
			c-0.1,0.22-0.15,0.39-0.15,0.52l-0.07-0.1c-0.02,0-0.04,0.04-0.05,0.13c-0.01,0.09-0.02,0.14-0.02,0.16
			c0,0.13,0.05,0.19,0.15,0.19c0.02,0,0.04,0,0.05-0.02c0.01-0.01,0.03-0.02,0.05-0.02l0.04-0.1l-0.07-0.23l0.22-0.16L104.96,27.21z
			 M104.52,23.92l0.07,0.1l0.07-0.1l-0.07-0.06L104.52,23.92z M105.29,25.83c-0.17,0.11-0.26,0.2-0.26,0.29c0,0.09,0,0.22,0,0.39
			c-0.07-0.09-0.14-0.17-0.2-0.24c-0.06-0.07-0.14-0.13-0.24-0.18l0.15,0.23l-0.07,0.19l0.33,0.13l0.04,0.42
			c0-0.26,0.12-0.46,0.37-0.61l0.11-0.19c0-0.11-0.04-0.21-0.11-0.32l0.11,0.06l0.04-0.16L105.29,25.83L105.29,25.83z M104.67,26.73
			l0.04,0.03l0.15-0.06h-0.15L104.67,26.73z M104.78,23.34l0.07,0.03l0.11-0.03l-0.11-0.06L104.78,23.34z M105.03,22.6l0.04,0.16
			c0.05,0,0.1-0.02,0.16-0.05c0.06-0.03,0.12-0.07,0.16-0.11l-0.04-0.19l-0.15-0.13L105.03,22.6z M105.11,26.4l0.15-0.1l0.04,0.03
			L105.11,26.4z M105.29,25.66l0.07,0.06l0.07-0.13l-0.07-0.06L105.29,25.66z M105.51,28.15l0.04,0.06l-0.04,0.13l-0.15-0.06
			L105.51,28.15z M105.58,21.93l-0.07,0.13l0.11,0.16l0.04-0.03v-0.19L105.58,21.93z M105.77,25.18l0.04,0.16v-0.13
			c0-0.17-0.02-0.3-0.07-0.39c-0.07,0.06-0.11,0.14-0.11,0.22L105.77,25.18z M105.73,27.63l0.18,0.1l-0.29,0.32L105.73,27.63z
			 M105.73,24.28l0.07,0.1l0.04-0.06l-0.07-0.1L105.73,24.28z M105.77,26.66l-0.04-0.06l0.07-0.06l0.04,0.06L105.77,26.66z
			 M105.8,23.44l0.29,0.06l-0.15-0.13L105.8,23.44z M105.91,24.79l-0.04-0.26l-0.07,0.03v0.19L105.91,24.79z M105.84,21.09l0.04,0.1
			l0.07-0.1l-0.07-0.06L105.84,21.09z M105.84,27.28c0.05-0.04,0.09-0.09,0.13-0.14s0.07-0.1,0.09-0.15l-0.04,0.32L105.84,27.28z
			 M106.24,24.79h-0.04l-0.11,0.06l0.07,0.13l0.07-0.06V24.79z M106.28,26.82l-0.04,0.16l-0.07-0.06v-0.16L106.28,26.82z
			 M106.21,23.31l0.07,0.03l0.15-0.06l-0.11-0.03L106.21,23.31z M106.24,26.44l-0.04-0.06l0.04-0.03l0.22-0.03l0.04-0.03l-0.07,0.19
			L106.24,26.44z M106.28,23.05c0.05-0.06,0.1-0.13,0.16-0.21c0.06-0.07,0.14-0.11,0.24-0.11l-0.18-0.06l-0.22,0.16L106.28,23.05
			L106.28,23.05z M106.61,22.22l-0.07,0.06v0.1h0.11v-0.13L106.61,22.22z M106.57,25.47v-0.03c0-0.04,0.01-0.07,0.04-0.1l0.04,0.06
			L106.57,25.47z M106.76,23.96l0.04,0.06l0.07-0.1l-0.04-0.06L106.76,23.96z M106.79,21.48l0.11,0.03h0.07L106.79,21.48z
			 M106.94,22.67l0.04-0.03V22.6l-0.15-0.1l-0.04,0.06L106.94,22.67z M106.87,23.02l0.04-0.06l-0.07-0.1v0.1L106.87,23.02z
			 M107.23,19.61l0.04,0.1v-0.16L107.23,19.61z M107.6,21.8c-0.05-0.04-0.08-0.1-0.09-0.16c-0.01-0.06-0.03-0.12-0.05-0.16h-0.04
			l-0.18,0.13v0.1c0.05,0.04,0.1,0.06,0.16,0.06s0.12,0.01,0.16,0.03L107.6,21.8L107.6,21.8z M107.42,23.83l0.07,0.13l-0.07,0.06
			l-0.07-0.13L107.42,23.83z M107.46,20.25c-0.07,0-0.07,0.05,0,0.16V20.25z M107.64,19.67c-0.05,0-0.1,0.03-0.15,0.1
			c-0.05,0.06-0.07,0.12-0.07,0.16c0,0.02,0.01,0.04,0.02,0.06c0.01,0.02,0.02,0.04,0.02,0.06l0.07-0.19l0.15,0.1v-0.23
			L107.64,19.67z M107.49,21.48c0.07,0.06,0.12,0.1,0.15,0.1l0.04-0.03v-0.06L107.49,21.48L107.49,21.48z M107.56,20.99h0.04
			l0.11-0.1l-0.04-0.1L107.56,20.99z"/>
		<path class="st0" d="M122.36,21.64c0.07,0.06,0.11,0.14,0.11,0.23c0,0.34-0.1,0.73-0.29,1.16c-0.2,0.43-0.39,0.8-0.59,1.09
			c0,0.15-0.04,0.27-0.11,0.35c-0.07,0.09-0.14,0.19-0.18,0.32c-0.27,0.64-0.73,1.45-1.4,2.42c-0.66,0.97-1.39,1.95-2.18,2.95
			c-0.8,1-1.6,1.94-2.4,2.82c-0.81,0.88-1.49,1.56-2.06,2.03l-0.33,0.06l-0.18,0.13c0.05,0.06,0.04,0.13-0.04,0.19
			c-0.07,0.06-0.14,0.12-0.18,0.16l0.11,0.32h-0.26l-0.07-0.13l-0.07,0.03l-0.48,0.48l-0.18-0.13l-0.22,0.06l-0.07,0.13h0.22
			c0,0.02,0.01,0.04,0.02,0.05c0.01,0.01,0.02,0.03,0.02,0.05c0,0.06-0.1,0.14-0.29,0.24c-0.2,0.1-0.32,0.17-0.37,0.21
			c-0.51,0.32-0.99,0.59-1.43,0.81c-0.44,0.21-0.89,0.4-1.36,0.55c-0.46,0.15-0.95,0.26-1.45,0.32c-0.5,0.06-1.07,0.1-1.71,0.1
			c-0.42,0-0.83-0.06-1.23-0.19c-0.4-0.13-0.76-0.31-1.06-0.55c-0.31-0.24-0.56-0.51-0.75-0.82c-0.19-0.31-0.29-0.66-0.29-1.05
			c0-0.22,0.06-0.47,0.18-0.77c0.12-0.3,0.29-0.59,0.49-0.85c0.21-0.27,0.45-0.49,0.72-0.68c0.27-0.18,0.55-0.27,0.84-0.27
			l0.07,0.06c-0.19,0.28-0.42,0.53-0.68,0.74c-0.26,0.21-0.48,0.47-0.68,0.77c0.12-0.02,0.26-0.11,0.4-0.27s0.29-0.33,0.44-0.52
			c0.15-0.18,0.3-0.35,0.46-0.5c0.16-0.15,0.31-0.23,0.46-0.23l0.07,0.16l0.18-0.1c0.07,0.13,0.11,0.27,0.11,0.42
			c0,0.21,0,0.46,0,0.72c0,0.27,0.04,0.52,0.11,0.74c0.07,0.23,0.2,0.41,0.39,0.56c0.18,0.15,0.46,0.23,0.83,0.23
			c0.49,0,0.97-0.17,1.45-0.5c0.48-0.33,0.93-0.73,1.36-1.19c0.43-0.46,0.83-0.93,1.19-1.42c0.37-0.48,0.69-0.89,0.95-1.21
			c-0.29-0.32-0.54-0.77-0.75-1.34c-0.21-0.57-0.39-1.18-0.53-1.82c-0.15-0.64-0.26-1.27-0.33-1.89c-0.07-0.61-0.11-1.12-0.11-1.53
			c0-0.75,0.07-1.49,0.22-2.22c0.15-0.73,0.22-1.47,0.22-2.22c0-0.15,0-0.33,0-0.53s-0.02-0.4-0.07-0.6s-0.13-0.35-0.26-0.48
			c-0.12-0.13-0.29-0.19-0.51-0.19c-0.07,0-0.15,0-0.22,0s-0.13-0.03-0.18-0.1c0.07-0.06,0.11-0.14,0.11-0.23
			c0-0.04-0.01-0.06-0.04-0.06c-0.05,0-0.13,0.01-0.26,0.03c-0.12,0.02-0.18,0-0.18-0.06c0-0.21,0.15-0.41,0.44-0.58
			s0.55-0.26,0.77-0.26c0.66,0,1.27,0.13,1.83,0.4c0.56,0.27,1.05,0.61,1.47,1.03c0.42,0.42,0.76,0.9,1.05,1.43
			c0.28,0.54,0.47,1.06,0.57,1.58c-0.02,0.04-0.02,0.13,0.02,0.27c0.04,0.14,0.08,0.3,0.13,0.47c0.05,0.17,0.1,0.34,0.15,0.52
			c0.05,0.17,0.07,0.3,0.07,0.39c0.02,0.13,0.04,0.26,0.04,0.39s0,0.26,0,0.39c0,0.54-0.03,1.07-0.09,1.6
			c-0.06,0.53-0.12,1.06-0.16,1.6c0.34-0.34,0.64-0.74,0.9-1.18c0.26-0.44,0.59-0.81,1.01-1.11c0.12-0.26,0.26-0.5,0.42-0.74
			c0.16-0.24,0.3-0.48,0.42-0.74l0.11-0.06c0.17-0.34,0.4-0.76,0.68-1.24c0.28-0.48,0.55-0.99,0.81-1.51
			c0.26-0.53,0.48-1.04,0.66-1.53c0.18-0.49,0.28-0.92,0.28-1.29c0-0.32-0.21-0.54-0.62-0.64c0-0.02-0.01-0.04-0.02-0.06
			c-0.01-0.02-0.02-0.04-0.02-0.06c0-0.06,0.04-0.1,0.11-0.11c0.07-0.01,0.13-0.05,0.18-0.11l-0.07-0.06l-0.33,0.03
			c0.02-0.21,0.16-0.37,0.42-0.47c0.26-0.1,0.48-0.15,0.68-0.15c0.39,0,0.75,0.17,1.06,0.5c0.32,0.33,0.59,0.73,0.83,1.18
			c0.23,0.45,0.41,0.91,0.53,1.37c0.12,0.46,0.2,0.83,0.22,1.11l-0.15,0.29l-0.07,0.03V21.64z M103.56,35.07l-0.15,0.1h0.07
			l0.15-0.06L103.56,35.07z M104.48,34.14c0.02-0.04,0.09-0.11,0.18-0.19L104.48,34.14z M108.96,35.43
			c0.32-0.13,0.61-0.29,0.86-0.48c0.26-0.19,0.49-0.41,0.72-0.66c0.22-0.25,0.43-0.49,0.64-0.74c0.21-0.25,0.42-0.48,0.64-0.69
			c0.02-0.06,0.05-0.13,0.07-0.21c0.02-0.08,0.04-0.14,0.04-0.21h-0.22c-0.17,0.04-0.28,0.13-0.33,0.26
			c-0.02,0.09-0.15,0.26-0.37,0.52c-0.22,0.26-0.47,0.54-0.73,0.84c-0.27,0.3-0.53,0.58-0.79,0.85
			C109.24,35.16,109.06,35.34,108.96,35.43z M111.05,36.49l-0.07-0.06l-0.04,0.06l0.07,0.1L111.05,36.49z M111.71,35.75l-0.22-0.13
			l-0.04,0.16l0.22,0.1L111.71,35.75z M111.82,35.2c0.05,0.11,0.12,0.16,0.22,0.16c0.02,0,0.04-0.01,0.05-0.02s0.03-0.02,0.05-0.02
			c-0.05-0.04-0.09-0.08-0.13-0.11c-0.04-0.03-0.08-0.05-0.13-0.05L111.82,35.2z M112.7,34.69l-0.22,0.26l-0.04,0.16l0.04,0.03
			l0.29-0.35L112.7,34.69z M112.78,32.98c0.05-0.04,0.11-0.1,0.18-0.16c0.07-0.06,0.11-0.13,0.11-0.19L112.78,32.98z M113.36,35.23
			l-0.26,0.19l-0.04-0.06V35.3l0.22-0.1L113.36,35.23z M120.41,27.05c-0.05,0.09-0.12,0.2-0.2,0.35s-0.18,0.31-0.28,0.47
			c-0.1,0.16-0.2,0.31-0.29,0.43c-0.1,0.13-0.18,0.23-0.26,0.29c-0.27,0.43-0.64,0.96-1.12,1.58c-0.48,0.62-0.99,1.25-1.52,1.89
			c-0.54,0.63-1.09,1.22-1.65,1.76c-0.56,0.54-1.06,0.93-1.5,1.19l-0.07-0.06c0.17-0.17,0.36-0.33,0.57-0.47
			c0.21-0.14,0.4-0.3,0.57-0.47c0.49-0.52,0.99-1.04,1.5-1.58c0.51-0.54,0.98-1.08,1.4-1.64c0.49-0.62,0.95-1.26,1.4-1.92
			c0.44-0.65,0.9-1.29,1.4-1.92L120.41,27.05z M113.77,33.91l-0.04-0.06l-0.11,0.06v0.03l0.04,0.06L113.77,33.91z M113.88,27.86
			l-0.04-0.13c0,0.04-0.01,0.09-0.04,0.14c-0.02,0.05-0.04,0.1-0.04,0.14v0.23h0.04L113.88,27.86z M113.92,33.69
			c0.24-0.13,0.59-0.43,1.05-0.9c0.45-0.47,0.92-1,1.4-1.58c0.48-0.58,0.92-1.15,1.32-1.71c0.4-0.56,0.68-0.97,0.82-1.22
			c-0.29,0.39-0.67,0.82-1.12,1.29c-0.45,0.47-0.9,0.95-1.34,1.42c-0.44,0.47-0.86,0.95-1.25,1.42
			C114.4,32.87,114.11,33.3,113.92,33.69z M113.99,26.99c-0.02,0-0.04,0.02-0.04,0.06L113.99,26.99z M114.02,29.37
			c0.07-0.02,0.14-0.06,0.2-0.11c0.06-0.05,0.12-0.1,0.16-0.14c-0.12,0.15-0.22,0.31-0.29,0.48c-0.07,0.17-0.11,0.34-0.11,0.52v0.1
			l0.37-0.55l0.18-0.1c0.05-0.13,0.1-0.24,0.16-0.32c0.06-0.09,0.15-0.17,0.28-0.26c0.1-0.13,0.21-0.31,0.35-0.55
			c0.13-0.24,0.3-0.35,0.49-0.35l0.18-0.1h0.18l-0.18-0.06l-0.04-0.23c0.12-0.09,0.21-0.18,0.28-0.29c0.06-0.11,0.11-0.2,0.15-0.29
			c0.04-0.09,0.09-0.17,0.16-0.24c0.07-0.07,0.19-0.12,0.37-0.14c0-0.04-0.03-0.07-0.09-0.08c-0.06-0.01-0.12-0.02-0.16-0.02
			l-0.07-0.13c0.05-0.13,0.13-0.25,0.26-0.35c-0.54,0.49-1.06,1.01-1.56,1.55C114.79,28.23,114.37,28.79,114.02,29.37z
			 M114.25,26.44l-0.07-0.16l-0.11,0.1l0.15,0.19L114.25,26.44z M114.28,31.24l-0.04-0.06l-0.07,0.1l0.04,0.06L114.28,31.24z
			 M114.32,23.6c-0.07,0.06-0.11,0.15-0.11,0.26c0,0.06,0.02,0.14,0.07,0.23c0.02-0.04,0.04-0.12,0.04-0.23L114.32,23.6L114.32,23.6
			z M114.21,25.44c0.07-0.32,0.11-0.66,0.11-1c0-0.04-0.02-0.13-0.07-0.26c0,0.22-0.01,0.42-0.02,0.63
			C114.21,25.01,114.21,25.22,114.21,25.44z M117.14,27.92c-0.22,0.15-0.38,0.3-0.48,0.45l0.37-0.19c-0.1,0.11-0.19,0.21-0.28,0.31
			c-0.09,0.1-0.2,0.17-0.35,0.21c-0.02,0.19-0.1,0.38-0.22,0.55c-0.12,0.17-0.28,0.31-0.48,0.42c-0.2,0.34-0.43,0.67-0.7,0.97
			c-0.27,0.3-0.51,0.61-0.73,0.93c0.61-0.49,1.16-1.05,1.65-1.67c0.49-0.62,0.94-1.25,1.36-1.87L117.14,27.92z M114.94,28.5
			c-0.02,0.04-0.07,0.11-0.15,0.21c-0.07,0.1-0.13,0.15-0.18,0.15L114.94,28.5z M114.94,28.4l0.48-0.48l-0.22,0.32L114.94,28.4z
			 M115.35,30.01c-0.17,0.06-0.27,0.16-0.29,0.29l0.18-0.13L115.35,30.01z M115.9,27.37c-0.02,0.13-0.12,0.24-0.29,0.32L115.9,27.37
			z M116.23,26.92l0.11-0.16l0.07,0.06l-0.07,0.16L116.23,26.92z M117.36,27.82l0.07,0.03l0.11-0.13l-0.07-0.03L117.36,27.82z
			 M118.17,24.28l0.07,0.1l0.04-0.06l-0.07-0.1L118.17,24.28z M121.44,25.34c-0.15,0.22-0.29,0.42-0.44,0.63
			c-0.15,0.2-0.26,0.42-0.33,0.66l-0.07-0.03c0.02-0.04,0.07-0.14,0.15-0.29c0.07-0.15,0.15-0.3,0.22-0.45
			c0.07-0.15,0.15-0.29,0.22-0.42s0.13-0.19,0.18-0.19L121.44,25.34z M122.02,24.25c0,0.06-0.02,0.12-0.07,0.16
			c-0.05,0.04-0.1,0.09-0.15,0.13h-0.04L122.02,24.25z M122.17,21.57v-0.06l-0.11-0.03l-0.07,0.1l0.11,0.06L122.17,21.57z"/>
	</g>
	<g>
		<path class="st0" d="M142.98,11.97l-0.15,0.6l-0.1,0.04l-0.15-0.04l-0.29,0.09l0.24,0.34l-0.1,0.21l-0.49,0.21
			c0.03,0.11,0.06,0.19,0.1,0.23c0.03,0.04,0.05,0.12,0.05,0.23l-0.24,0.34l-0.29,0.09l0.24,0.09v0.26c0,0.28-0.02,0.5-0.05,0.64
			l0.44,0.17c0.71,0,1.41-0.09,2.09-0.28c0.68-0.18,1.36-0.4,2.04-0.64c0.68-0.24,1.36-0.45,2.04-0.64
			c0.68-0.18,1.39-0.28,2.13-0.28c0.61,0,1.16,0.04,1.65,0.11c0.49,0.07,0.95,0.32,1.41,0.74l0.29,0.09l0.05,0.21
			c-0.03,0.14-0.09,0.23-0.17,0.28c-0.08,0.04-0.17,0.12-0.27,0.23l0.53-0.21l-0.82,0.6l0.49-0.09c-1.07,0.54-2.26,1.14-3.56,1.81
			c-1.31,0.67-2.62,1.39-3.93,2.17c-1.31,0.78-2.58,1.63-3.81,2.53c-1.23,0.91-2.32,1.87-3.27,2.9c-0.95,1.02-1.72,2.11-2.3,3.26
			c-0.58,1.15-0.87,2.35-0.87,3.6c0,0.23,0.02,0.48,0.05,0.77c0.03,0.28,0.11,0.55,0.24,0.79c0.13,0.24,0.3,0.45,0.51,0.62
			c0.21,0.17,0.49,0.26,0.85,0.26c0.94,0,2.04-0.28,3.32-0.85c1.28-0.57,2.49-1.27,3.64-2.11c1.15-0.84,2.12-1.75,2.91-2.75
			c0.79-0.99,1.19-1.92,1.19-2.77c0-0.26-0.07-0.47-0.22-0.64c-0.15-0.17-0.19-0.41-0.12-0.72l0.82-0.17
			c1.55,0.48,2.33,1.48,2.33,2.98c0,0.62-0.15,1.21-0.44,1.77c-0.29,0.55-0.65,1.09-1.07,1.62c-0.42,0.53-0.87,1.03-1.36,1.51
			c-0.49,0.48-0.94,0.95-1.36,1.41c0.1-0.03,0.24-0.13,0.44-0.32c0.19-0.19,0.41-0.4,0.66-0.64s0.49-0.47,0.73-0.68
			c0.24-0.21,0.43-0.36,0.56-0.45c-0.68,0.8-1.47,1.55-2.38,2.26c-0.91,0.71-1.87,1.34-2.89,1.89c-1.02,0.55-2.1,0.99-3.25,1.32
			c-1.15,0.33-2.3,0.49-3.47,0.49c-1.23,0-2.42-0.15-3.59-0.45c-1.16-0.3-2.21-0.74-3.15-1.34c-0.94-0.6-1.69-1.34-2.26-2.24
			c-0.57-0.9-0.85-1.94-0.85-3.13c0-1.25,0.28-2.43,0.85-3.53c0.57-1.11,1.22-2.16,1.96-3.15c0.94-1.31,2.04-2.4,3.3-3.3
			c1.26-0.9,2.6-1.78,4.02-2.66c0.06-0.06,0.15-0.12,0.27-0.19c0.11-0.07,0.17-0.13,0.17-0.19v-0.13c-0.39-0.28-0.74-0.58-1.07-0.89
			c-0.32-0.31-0.6-0.67-0.82-1.06c-0.16-0.11-0.29-0.27-0.39-0.47c-0.1-0.2-0.18-0.42-0.24-0.66c-0.07-0.24-0.11-0.48-0.12-0.7
			c-0.02-0.23-0.02-0.43-0.02-0.6c0-0.11,0.03-0.33,0.1-0.66c0.06-0.33,0.15-0.65,0.24-0.98c0.1-0.33,0.2-0.62,0.32-0.87
			c0.11-0.26,0.22-0.38,0.32-0.38c0.03,0,0.06,0.01,0.07,0.02c0.02,0.01,0.04,0.02,0.07,0.02l0.05-0.09
			c-0.1-0.57,0.15-1.18,0.75-1.83c0.6-0.65,1.32-1.3,2.16-1.94c0.84-0.64,1.69-1.22,2.55-1.75c0.86-0.52,1.53-0.94,2.01-1.26
			c0.58-0.11,1.16-0.26,1.72-0.43c0.56-0.17,1.12-0.33,1.67-0.49c0.55-0.16,1.12-0.29,1.7-0.4c0.58-0.11,1.18-0.17,1.8-0.17
			c0.81,0,1.67,0.11,2.59,0.34c0.92,0.23,1.78,0.55,2.57,0.98c0.79,0.43,1.45,0.95,1.97,1.58c0.52,0.62,0.78,1.35,0.78,2.17v0.34
			c-0.13,0.06-0.26,0.15-0.39,0.28c-0.13,0.13-0.23,0.26-0.29,0.4l-0.24,0.09c-0.23,0-0.34-0.06-0.34-0.17
			c-0.13-0.2-0.37-0.33-0.73-0.38c-0.19,0.11-0.34,0.08-0.44-0.11c-0.1-0.18-0.18-0.33-0.24-0.45c-0.29-0.48-0.57-0.77-0.85-0.87
			c-0.28-0.1-0.72-0.15-1.33-0.15c-0.84,0-1.83,0.2-2.98,0.6c-1.15,0.4-2.27,0.9-3.37,1.51c-1.1,0.61-2.09,1.28-2.98,2.02
			c-0.89,0.74-1.5,1.45-1.82,2.13l-0.19-0.13l-0.1,0.09L142.98,11.97z M132.84,23.39l0.15,0.13c0.45-0.51,0.99-1.03,1.63-1.55
			c0.63-0.52,1.3-1.04,2.01-1.53c0.71-0.5,1.43-0.96,2.16-1.38c0.73-0.43,1.41-0.79,2.06-1.11c-0.74,0.09-1.47,0.31-2.18,0.66
			c-0.71,0.35-1.4,0.78-2.06,1.28c-0.66,0.5-1.27,1.02-1.82,1.58c-0.55,0.55-1.03,1.09-1.46,1.6l-0.49,0.21L132.84,23.39
			L132.84,23.39z M133.33,22.45c0.1,0,0.22-0.07,0.36-0.21c0.15-0.14,0.3-0.3,0.46-0.47c0.16-0.17,0.32-0.33,0.46-0.49
			c0.15-0.16,0.25-0.28,0.32-0.36L133.33,22.45z M135.66,23.9c0.55-0.65,1.17-1.23,1.87-1.72c0.69-0.5,1.32-1.07,1.87-1.72
			c-0.16,0.06-0.45,0.24-0.87,0.55c-0.42,0.31-0.86,0.67-1.31,1.06c-0.45,0.4-0.86,0.79-1.21,1.17c-0.36,0.38-0.55,0.65-0.58,0.79
			L135.66,23.9z M147.49,17.55c-0.42,0-0.96,0.16-1.63,0.49c-0.66,0.33-1.37,0.74-2.13,1.26c-0.76,0.51-1.54,1.09-2.33,1.72
			c-0.79,0.64-1.53,1.27-2.21,1.89c-0.68,0.62-1.28,1.21-1.8,1.75c-0.52,0.54-0.86,0.98-1.02,1.32c0.26-0.23,0.5-0.49,0.73-0.79
			c0.23-0.3,0.47-0.58,0.73-0.83c1.2-1.33,2.54-2.5,4.03-3.49c1.49-0.99,3.06-1.93,4.7-2.81l0.53-0.3c0.06-0.06,0.16-0.11,0.29-0.15
			C147.52,17.57,147.55,17.55,147.49,17.55z M137.01,26.96c0.61-0.74,1.11-1.32,1.48-1.75c0.37-0.43,0.72-0.83,1.04-1.21
			c0.32-0.38,0.5-0.6,0.53-0.66c0.23-0.31,0.78-0.77,1.65-1.36c0.87-0.6,1.84-1.21,2.91-1.85c1.07-0.64,2.09-1.24,3.08-1.79
			c0.99-0.55,1.69-0.94,2.11-1.17c-1.36,0.57-2.64,1.16-3.85,1.77c-1.21,0.61-2.34,1.29-3.4,2.04c-1.05,0.75-2.04,1.59-2.96,2.51
			c-0.92,0.92-1.77,1.97-2.55,3.13L137.01,26.96z M137.5,21.51l0.15-0.09v-0.04l-0.05-0.09l-0.15,0.13L137.5,21.51z M139.68,7.89
			c0.1,0,0.17-0.05,0.22-0.15c0.05-0.1,0.09-0.18,0.12-0.23L139.68,7.89z M140.26,7.08l0.49-0.04l0.05-0.21L140.26,7.08z
			 M147.44,3.2c-0.71,0.26-1.36,0.49-1.94,0.7s-1.12,0.45-1.63,0.7c-0.5,0.26-0.99,0.55-1.48,0.9c-0.49,0.34-0.99,0.78-1.5,1.32
			c1.16-0.48,2.3-1.06,3.4-1.75c1.1-0.68,2.2-1.31,3.3-1.87L147.44,3.2L147.44,3.2z M142.54,5.12c-0.16,0.06-0.43,0.21-0.8,0.45
			c-0.37,0.24-0.57,0.45-0.61,0.62c0.06,0,0.17-0.04,0.32-0.13s0.29-0.19,0.44-0.32c0.15-0.13,0.28-0.25,0.41-0.36
			C142.43,5.26,142.51,5.18,142.54,5.12z M141.77,14.02c0.06,0,0.11-0.04,0.15-0.13c0.03-0.09,0.05-0.16,0.05-0.21
			c0-0.06-0.02-0.09-0.05-0.09l-0.19,0.43L141.77,14.02L141.77,14.02z M142.11,8.1c-0.07,0.06-0.12,0.12-0.17,0.19
			s-0.09,0.13-0.12,0.19l0.29-0.17L142.11,8.1L142.11,8.1z M142.16,13l-0.05,0.04l0.05,0.13V13z M145.5,5.8
			c-0.1,0-0.31,0.1-0.63,0.3c-0.32,0.2-0.66,0.43-0.99,0.68s-0.67,0.5-0.99,0.74c-0.32,0.24-0.53,0.4-0.63,0.49l0.05,0.04
			c0.1-0.03,0.29-0.14,0.58-0.34c0.29-0.2,0.61-0.43,0.95-0.68c0.34-0.26,0.67-0.5,0.99-0.75C145.15,6.05,145.37,5.89,145.5,5.8z
			 M142.98,11.38c0.13,0,0.19-0.06,0.19-0.17l-0.05-0.04l-0.19,0.04v0.09L142.98,11.38z M143.08,11.85h0.05l-0.15,0.13L143.08,11.85
			z M144.97,9.38c0.26-0.43,0.69-0.82,1.31-1.17c0.61-0.35,1.25-0.69,1.92-1c0.66-0.31,1.29-0.6,1.89-0.85
			c0.6-0.26,1.01-0.5,1.24-0.72c-0.65,0.03-1.33,0.21-2.04,0.55c-0.71,0.34-1.41,0.74-2.11,1.21c-0.7,0.47-1.34,0.96-1.94,1.47
			c-0.6,0.51-1.09,0.98-1.48,1.41l-0.24,0.04l-0.24,0.6l0.97-1.02L144.97,9.38z M148.56,6.06c0.26-0.17,0.44-0.31,0.53-0.43
			c-0.26,0.03-0.68,0.2-1.26,0.51c-0.58,0.31-1.19,0.67-1.82,1.09c-0.63,0.41-1.19,0.82-1.67,1.23c-0.49,0.41-0.74,0.72-0.78,0.92
			c0.42-0.26,0.82-0.55,1.21-0.87c0.39-0.33,0.78-0.65,1.16-0.96s0.8-0.6,1.24-0.87C147.61,6.4,148.07,6.2,148.56,6.06z
			 M144.68,5.89c-0.23,0.11-0.37,0.23-0.44,0.34C144.47,6.11,144.61,6,144.68,5.89z M147.73,29.39c-0.55,0.54-1.1,1.06-1.65,1.58
			c-0.55,0.51-1.08,1.04-1.6,1.57c0.74-0.34,1.37-0.79,1.89-1.36C146.89,30.61,147.34,30.01,147.73,29.39z M144.87,5.84
			c0.03,0,0.1-0.04,0.19-0.13L144.87,5.84z M149.28,30.79c-0.29,0.31-0.59,0.62-0.9,0.92c-0.31,0.3-0.59,0.6-0.85,0.92
			c0.13-0.09,0.28-0.21,0.46-0.36c0.18-0.16,0.36-0.32,0.53-0.49c0.18-0.17,0.34-0.34,0.49-0.51
			C149.16,31.09,149.25,30.94,149.28,30.79z M149.28,30.58l0.05,0.13l0.15-0.17v-0.13L149.28,30.58z M149.72,31.3
			c0.03-0.09,0.12-0.24,0.27-0.47c0.15-0.23,0.31-0.47,0.49-0.72c0.18-0.26,0.35-0.48,0.51-0.68c0.16-0.2,0.28-0.3,0.34-0.3
			c-0.03,0.11-0.11,0.27-0.24,0.47c-0.13,0.2-0.28,0.4-0.46,0.62c-0.18,0.21-0.35,0.42-0.51,0.62
			C149.95,31.03,149.82,31.19,149.72,31.3z M158.94,7.33c-0.19,0.17-0.37,0.27-0.53,0.3c0.07-0.06,0.15-0.12,0.24-0.19
			C158.74,7.37,158.84,7.33,158.94,7.33z"/>
		<path class="st0" d="M164.62,18.2c0.05,0,0.1,0.02,0.15,0.05c0.05,0.03,0.1,0.06,0.15,0.08c0.69,0.37,1.17,0.82,1.47,1.35
			c0.29,0.54,0.44,1.15,0.44,1.84c0,0.13-0.01,0.32-0.04,0.58s-0.09,0.43-0.18,0.51l-0.11,0.26c0.07,0.43-0.11,1.01-0.55,1.76
			c-0.44,0.74-0.97,1.51-1.6,2.3c-0.62,0.8-1.25,1.56-1.87,2.29s-1.08,1.3-1.38,1.71c0.17-0.02,0.4-0.19,0.7-0.5
			c0.29-0.31,0.62-0.68,0.97-1.11c0.35-0.43,0.72-0.89,1.08-1.39c0.37-0.49,0.7-0.96,0.99-1.39c0.29-0.43,0.54-0.78,0.75-1.06
			s0.32-0.42,0.35-0.42c-0.37,0.73-0.75,1.4-1.16,2.01c-0.4,0.61-0.84,1.19-1.32,1.74c-0.48,0.55-0.99,1.08-1.54,1.6
			c-0.55,0.51-1.16,1.04-1.82,1.58c-0.05-0.06-0.12-0.1-0.22-0.1c-0.1,0-0.15,0.06-0.15,0.18s-0.02,0.21-0.07,0.27
			c-0.17,0.09-0.32,0.18-0.46,0.29c-0.13,0.11-0.29,0.21-0.46,0.32l-0.22,0.03l-0.33-0.1l-0.18-0.16l-0.04,0.1l0.07,0.16l0.22,0.13
			l-0.22,0.1l-0.33-0.06c-0.07,0.06-0.16,0.16-0.28,0.27c-0.11,0.12-0.23,0.18-0.35,0.18c-0.05,0-0.1-0.01-0.15-0.03
			c-0.05-0.02-0.1-0.03-0.15-0.03l-0.07,0.03l0.04-0.16l-0.11,0.03c0.02,0.09,0.01,0.14-0.04,0.16c-0.05,0.02-0.11,0.04-0.18,0.06
			c-0.07,0.02-0.15,0.04-0.24,0.06c-0.09,0.02-0.14,0.06-0.16,0.13c-0.07,0.02-0.15,0.06-0.24,0.11c-0.09,0.05-0.15,0.1-0.2,0.14
			v0.1c-0.02-0.04-0.07-0.11-0.15-0.19c-0.07-0.09-0.14-0.13-0.18-0.13c-0.12,0-0.26,0.03-0.4,0.1c-0.15,0.06-0.29,0.1-0.44,0.1
			c-0.12,0-0.23-0.04-0.31-0.13c-0.09-0.09-0.18-0.16-0.28-0.22c-0.2-0.37-0.35-0.74-0.48-1.11c-0.12-0.38-0.18-0.78-0.18-1.21
			c0-0.84,0.1-1.69,0.29-2.55c0.2-0.86,0.34-1.71,0.44-2.55c0.05-0.58,0.1-1.16,0.15-1.76c0.05-0.59,0.07-1.18,0.07-1.76
			c0-0.97-0.07-1.92-0.22-2.87c0.05-0.04,0.13-0.13,0.24-0.27c0.11-0.14,0.2-0.21,0.28-0.21c0.1,0,0.15,0.05,0.16,0.16
			c0.01,0.11,0.08,0.16,0.2,0.16h0.04l0.11-0.19c0.37,0.02,0.72,0.15,1.06,0.39c0.34,0.24,0.64,0.47,0.88,0.71
			c0.02,0.09,0.09,0.21,0.18,0.37c0.1,0.16,0.19,0.33,0.29,0.52s0.18,0.35,0.26,0.5s0.11,0.26,0.11,0.32l0.07,0.16v0.16l0.18,0.13
			c-0.05,0.32-0.02,0.64,0.07,0.97c0.1,0.32,0.15,0.64,0.15,0.97c0,0.64-0.02,1.28-0.07,1.92c-0.05,0.63-0.07,1.27-0.07,1.92
			c0,0.02,0,0.05,0,0.1c0,0.04,0.02,0.06,0.07,0.06c0.12-0.19,0.18-0.4,0.18-0.63c0-0.23,0.04-0.45,0.11-0.66l0.15-0.1v0.71
			c0.19-0.11,0.35-0.25,0.48-0.42c0.12-0.17,0.27-0.32,0.44-0.45c0.29-0.49,0.72-1.07,1.27-1.74c0.55-0.67,1.09-1.35,1.61-2.06
			c0.53-0.71,0.98-1.41,1.38-2.09c0.39-0.69,0.59-1.3,0.59-1.84c0-0.17-0.04-0.31-0.13-0.4c-0.09-0.1-0.13-0.22-0.13-0.37
			l-0.11-0.06c0.07-0.11,0.16-0.21,0.28-0.31C164.35,18.25,164.48,18.2,164.62,18.2z M154.86,32.28v-0.26
			c-0.05,0.06-0.1,0.13-0.16,0.19c-0.06,0.06-0.1,0.14-0.13,0.22l0.11,0.06L154.86,32.28z M154.71,27.86l-0.11,0.13v0.06l0.11-0.13
			V27.86z M155.89,31.47c0.07-0.41,0.13-0.81,0.16-1.19c0.04-0.39,0.08-0.78,0.13-1.19c-0.12,0.43-0.2,0.87-0.22,1.32
			c-0.02,0.45-0.16,0.88-0.4,1.29l0.04,0.13c0.02-0.06,0.07-0.13,0.13-0.19C155.78,31.57,155.84,31.52,155.89,31.47z M157.36,29.73
			c0.05,0,0.1-0.11,0.15-0.32c0.05-0.21,0.07-0.35,0.07-0.42c0-0.13-0.01-0.25-0.02-0.37c-0.01-0.12-0.02-0.24-0.02-0.37
			c-0.05,0.13-0.1,0.25-0.15,0.37c-0.05,0.12-0.11,0.23-0.18,0.34l0.15-0.1c0.02,0,0.04,0.03,0.04,0.1c0,0.06,0,0.11,0,0.13
			c0,0.11-0.01,0.22-0.02,0.32C157.36,29.52,157.36,29.63,157.36,29.73z M157.39,31.09l-0.07,0.1l0.04,0.06l0.07-0.06L157.39,31.09z
			 M157.87,30.93c0.2-0.34,0.54-0.8,1.03-1.37s0.99-1.15,1.5-1.74c0.51-0.59,0.97-1.15,1.38-1.68c0.4-0.53,0.63-0.93,0.68-1.21
			c-0.32,0.37-0.62,0.73-0.92,1.1c-0.29,0.37-0.61,0.71-0.95,1.03l-0.11-0.03L160.44,27l0.04,0.13l-1.36,1.68h-0.04
			c-0.02,0.09-0.08,0.2-0.16,0.34c-0.09,0.14-0.18,0.29-0.29,0.44c-0.11,0.15-0.22,0.3-0.33,0.43c-0.11,0.14-0.2,0.24-0.28,0.31
			l-0.26,0.61L157.87,30.93L157.87,30.93z M158.57,25.9l-0.18-0.1l0.15-0.03l0.11,0.1L158.57,25.9z M158.57,27.19
			c-0.05-0.04-0.09-0.09-0.13-0.13c-0.04-0.04-0.05-0.1-0.05-0.16c0-0.15,0.05-0.22,0.15-0.22c0.05,0,0.08,0.02,0.09,0.06
			c0.01,0.04,0.02,0.09,0.02,0.13c0,0.04-0.01,0.1-0.04,0.16C158.58,27.09,158.57,27.15,158.57,27.19z M158.71,31.09l-0.18,0.06
			l-0.04,0.1l0.18-0.06L158.71,31.09z M159.3,30.7c0.05,0.04,0.08,0.06,0.11,0.06c0.02,0,0.04-0.01,0.04-0.03V30.7L159.3,30.7
			L159.3,30.7z M160.55,31.38v-0.03l-0.07,0.03l-0.11,0.13l0.04,0.03L160.55,31.38z M161.65,25.55c-0.05,0.04-0.13,0.14-0.24,0.29
			s-0.23,0.3-0.35,0.45c-0.15,0.19-0.31,0.39-0.48,0.58c0.05,0,0.13-0.06,0.24-0.18c0.11-0.12,0.22-0.25,0.33-0.4
			c0.11-0.15,0.21-0.3,0.31-0.44C161.56,25.71,161.63,25.61,161.65,25.55z M163.41,25.77c-0.49,0.49-0.93,1-1.32,1.51
			c-0.39,0.52-0.81,1.03-1.25,1.55v0.03c0.07-0.06,0.25-0.25,0.53-0.56c0.28-0.31,0.57-0.65,0.86-1.02c0.29-0.36,0.56-0.7,0.81-1
			C163.29,25.99,163.41,25.81,163.41,25.77z M161.76,29.44c0.15-0.09,0.36-0.28,0.64-0.6c0.28-0.31,0.57-0.66,0.86-1.05
			c0.29-0.39,0.56-0.75,0.79-1.1c0.23-0.34,0.37-0.59,0.42-0.74c-0.49,0.54-0.98,1.1-1.47,1.68
			C162.52,28.22,162.1,28.82,161.76,29.44z M162.24,24.77c-0.05,0.04-0.11,0.11-0.18,0.21c-0.07,0.1-0.11,0.18-0.11,0.24
			c0.05-0.09,0.11-0.16,0.18-0.21C162.2,24.96,162.24,24.88,162.24,24.77z M163.59,25.35l0.04,0.13l0.11-0.06l-0.07-0.16
			L163.59,25.35z M166.16,24.77l-0.07,0.16l-0.04-0.16l0.11-0.16L166.16,24.77L166.16,24.77z M166.46,24.16
			c0,0.11-0.06,0.16-0.18,0.16l0.07-0.19L166.46,24.16z M166.49,23.9l-0.04-0.1l0.07-0.13l0.04,0.1L166.49,23.9z"/>
		<path class="st0" d="M180.04,22.27c0,0.41-0.13,0.86-0.4,1.36c-0.27,0.5-0.61,0.98-1.01,1.45c-0.4,0.47-0.84,0.9-1.3,1.29
			c-0.47,0.39-0.89,0.68-1.28,0.87l-0.18,0.19c0.15-0.04,0.35-0.14,0.61-0.31c0.26-0.16,0.51-0.34,0.77-0.55
			c0.26-0.2,0.5-0.4,0.72-0.6s0.39-0.35,0.51-0.48l0.29-0.1c-0.27,0.24-0.64,0.54-1.12,0.92c-0.48,0.38-1,0.74-1.56,1.1
			c-0.56,0.36-1.11,0.66-1.65,0.92c-0.54,0.26-0.99,0.39-1.36,0.39h-0.18c-0.15,0.06-0.36,0.13-0.64,0.21s-0.51,0.11-0.68,0.11
			c-0.12,0-0.24-0.02-0.35-0.05c-0.11-0.03-0.23-0.04-0.35-0.02c-0.05,0.28-0.1,0.56-0.16,0.84c-0.06,0.28-0.09,0.55-0.09,0.81
			c0,0.11,0.01,0.24,0.02,0.39c0.01,0.15,0.05,0.3,0.11,0.44c0.06,0.14,0.13,0.26,0.22,0.37c0.08,0.11,0.2,0.16,0.35,0.16
			c0.59,0,1.12-0.08,1.6-0.24c0.48-0.16,0.94-0.36,1.38-0.6c0.44-0.24,0.87-0.49,1.3-0.76c0.43-0.27,0.89-0.52,1.38-0.76
			c-0.2,0.3-0.45,0.57-0.77,0.81c-0.32,0.24-0.65,0.46-0.99,0.68c0.39-0.13,0.75-0.34,1.06-0.63c0.32-0.29,0.69-0.51,1.1-0.66
			l-0.15,0.19c0.1-0.02,0.23-0.03,0.4-0.03l-0.04,0.19l0.07,0.1c-0.34,0.3-0.69,0.61-1.03,0.92c-0.34,0.31-0.7,0.61-1.06,0.89
			l0.11-0.06c-0.15,0.21-0.38,0.43-0.7,0.66c-0.32,0.23-0.66,0.43-1.03,0.63c-0.37,0.19-0.74,0.35-1.12,0.48
			c-0.38,0.13-0.72,0.19-1.01,0.19c-0.88,0-1.68-0.15-2.39-0.44c-0.71-0.29-1.32-0.68-1.83-1.16c-0.51-0.48-0.91-1.06-1.19-1.71
			c-0.28-0.66-0.42-1.36-0.42-2.11c0-0.99,0.28-2.1,0.84-3.33c0.56-1.23,1.3-2.38,2.22-3.45c0.92-1.08,1.96-1.98,3.14-2.71
			c1.17-0.73,2.39-1.1,3.63-1.1c0.61,0,1.17,0.13,1.69,0.39c0.51,0.26,0.96,0.59,1.34,1c0.38,0.41,0.67,0.87,0.88,1.39
			C179.93,21.27,180.04,21.77,180.04,22.27z M170.71,21.66c0.59-0.47,1.2-0.9,1.85-1.27c0.65-0.38,1.27-0.8,1.85-1.27
			c-0.17,0.04-0.33,0.04-0.48,0l-0.22,0.06c-0.2,0.15-0.44,0.33-0.73,0.53c-0.29,0.2-0.6,0.42-0.92,0.64
			c-0.32,0.22-0.61,0.45-0.86,0.66c-0.26,0.22-0.42,0.42-0.49,0.61L170.71,21.66L170.71,21.66z M171.67,20.39
			c-0.12,0.11-0.25,0.21-0.37,0.31c-0.12,0.1-0.24,0.21-0.37,0.34c0.12-0.11,0.24-0.21,0.37-0.31
			C171.42,20.63,171.55,20.52,171.67,20.39z M171.85,26.64c0.46-0.21,1.03-0.54,1.71-0.98c0.67-0.44,1.32-0.92,1.93-1.45
			c0.61-0.53,1.13-1.08,1.56-1.66c0.43-0.58,0.64-1.13,0.64-1.64c0-0.13-0.06-0.19-0.18-0.19c-0.47,0-0.99,0.25-1.56,0.74
			c-0.57,0.49-1.13,1.07-1.67,1.72c-0.54,0.66-1.03,1.31-1.47,1.97C172.37,25.8,172.05,26.3,171.85,26.64z M173.47,23.45
			c-0.07,0.06-0.17,0.17-0.29,0.32c-0.12,0.15-0.25,0.3-0.39,0.45c-0.14,0.15-0.25,0.3-0.35,0.45c-0.1,0.15-0.15,0.26-0.15,0.32
			h0.04c0.2-0.24,0.4-0.48,0.62-0.74C173.17,24,173.34,23.73,173.47,23.45z M172.59,21.68c0.22-0.09,0.48-0.26,0.79-0.52
			c0.31-0.26,0.54-0.47,0.72-0.64c-0.27,0.17-0.54,0.35-0.81,0.53C173.01,21.23,172.78,21.44,172.59,21.68z M173.14,26.74
			c0.56-0.24,1.18-0.6,1.85-1.08c0.67-0.48,1.18-0.95,1.52-1.4c-0.2,0.04-0.39,0.12-0.57,0.22c-0.18,0.11-0.31,0.25-0.39,0.42
			c-0.39,0.34-0.81,0.64-1.25,0.9C173.87,26.06,173.48,26.37,173.14,26.74z M175.74,20.61c-0.15,0.06-0.33,0.19-0.55,0.37
			c-0.22,0.18-0.45,0.38-0.68,0.58c-0.23,0.2-0.45,0.41-0.66,0.61c-0.21,0.2-0.37,0.37-0.49,0.5c0.42-0.34,0.82-0.68,1.21-1.01
			C174.96,21.33,175.35,20.98,175.74,20.61z M176.66,20.74c-0.15,0.04-0.37,0.16-0.68,0.34c-0.31,0.18-0.62,0.4-0.94,0.64
			c-0.32,0.25-0.6,0.48-0.84,0.71c-0.25,0.22-0.38,0.4-0.4,0.53l0.04,0.03c0.46-0.41,0.94-0.79,1.41-1.14
			C175.72,21.5,176.19,21.13,176.66,20.74z M175.56,26.16c0.34-0.19,0.66-0.41,0.95-0.66c0.29-0.25,0.59-0.49,0.88-0.73
			L175.56,26.16z M176.18,24.42L176,24.68l-0.29,0.13L176.18,24.42z M177.84,25.45c-0.05,0.02-0.16,0.1-0.33,0.22
			s-0.35,0.27-0.55,0.42s-0.44,0.35-0.73,0.61c0.07,0,0.19-0.05,0.35-0.16c0.16-0.11,0.32-0.24,0.49-0.39s0.33-0.29,0.48-0.42
			C177.69,25.61,177.79,25.51,177.84,25.45z M176.81,23.84l-0.37,0.29c0.07,0,0.13-0.02,0.18-0.05c0.05-0.03,0.1-0.06,0.15-0.08
			l0.07,0.03h0.04l0.04-0.1L176.81,23.84z M179.01,25c0-0.04,0.05-0.12,0.16-0.23c0.11-0.11,0.19-0.18,0.24-0.22
			c0,0.06-0.05,0.14-0.17,0.24C179.14,24.88,179.06,24.95,179.01,25z"/>
		<path class="st0" d="M195.49,21.48c-0.02,0-0.06-0.02-0.11-0.06l-0.15,0.42l0.04,0.13l0.15-0.16v-0.1l0.07-0.16
			c0.05,0.06,0.07,0.17,0.07,0.32c0,0.37-0.05,0.72-0.16,1.06c-0.11,0.34-0.23,0.68-0.35,1l-0.04,0.13h-0.07l-0.18,0.1l0.07,0.1
			l-0.11,0.32l0.04,0.1l0.11,0.1l-0.29,0.13V25c0.02,0.04,0.05,0.08,0.07,0.11c0.02,0.03,0.04,0.07,0.04,0.11
			c0,0.06-0.01,0.11-0.04,0.13l-0.22,0.13c-0.02,0.28-0.11,0.53-0.26,0.76c-0.15,0.23-0.24,0.48-0.29,0.76l-0.29,0.32
			c-0.02,0.15-0.09,0.26-0.2,0.32c-0.11,0.06-0.17,0.17-0.17,0.32v0.29l0.11-0.1c-0.05,0.13-0.1,0.3-0.16,0.5
			c-0.06,0.2-0.14,0.36-0.24,0.47c-0.25,0.64-0.5,1.28-0.75,1.92c-0.26,0.63-0.54,1.26-0.86,1.88l0.04,0.19
			c0.05-0.06,0.08-0.13,0.11-0.21c0.02-0.08,0.05-0.15,0.07-0.21l0.15-0.03l0.11-0.35l0.07-0.06c0.12-0.39,0.3-0.75,0.53-1.1
			c0.23-0.34,0.39-0.71,0.46-1.09l0.18-0.23l-0.04,0.06c-0.02,0.34-0.12,0.7-0.28,1.06c-0.16,0.37-0.36,0.68-0.61,0.93
			c-0.07,0.19-0.18,0.44-0.31,0.74c-0.14,0.3-0.2,0.55-0.2,0.74c0,0.06,0.01,0.11,0.04,0.13l-0.07,0.19l-0.04-0.06l-0.18,0.1
			l-0.33-0.1c-0.1,0.06-0.19,0.06-0.28-0.02c-0.09-0.08-0.15-0.14-0.2-0.21v0.13c0,0.04,0.01,0.13,0.04,0.26
			c0.02,0.13-0.02,0.19-0.15,0.19c-0.44,0-0.83-0.12-1.17-0.37c-0.34-0.25-0.64-0.56-0.88-0.93c-0.25-0.38-0.43-0.77-0.55-1.18
			c-0.12-0.41-0.18-0.77-0.18-1.09c0-0.82,0.14-1.68,0.42-2.59c0.28-0.91,0.56-1.76,0.83-2.53c-0.1,0.04-0.21,0.12-0.35,0.22
			c-0.14,0.11-0.27,0.24-0.4,0.39c-0.13,0.15-0.27,0.3-0.4,0.44c-0.13,0.14-0.24,0.24-0.31,0.31c0.29-0.39,0.61-0.76,0.95-1.11
			c0.34-0.35,0.65-0.74,0.92-1.14c-0.22,0.19-0.56,0.55-1.01,1.06c-0.45,0.51-0.92,1.05-1.4,1.61c-0.48,0.56-0.91,1.06-1.3,1.51
			c-0.39,0.45-0.64,0.71-0.73,0.77v-0.39l-0.44,0.61v0.03l0.37-0.06c-0.1,0.17-0.24,0.38-0.42,0.63c-0.18,0.25-0.3,0.46-0.35,0.63
			l0.55-0.58c-0.1,0.13-0.28,0.38-0.55,0.74c-0.27,0.37-0.56,0.74-0.88,1.13c-0.32,0.39-0.63,0.73-0.94,1.03
			c-0.31,0.3-0.53,0.45-0.68,0.45l-0.04-0.03l-0.22,0.19l-0.07-0.1c-0.02-0.02-0.06-0.03-0.11-0.03c-0.1,0-0.18,0.03-0.26,0.1
			c-0.07,0.06-0.16,0.1-0.26,0.1c-0.1,0-0.15-0.04-0.16-0.11c-0.01-0.08-0.02-0.13-0.02-0.18c0-0.04-0.01-0.08-0.02-0.11
			s-0.01-0.07,0.02-0.11c-0.05,0.11-0.11,0.25-0.18,0.42c-0.07,0.17-0.17,0.26-0.29,0.26c-0.02,0-0.04,0-0.05-0.02
			c-0.01-0.01-0.03-0.02-0.05-0.02c-0.12-0.15-0.18-0.32-0.18-0.51c0-0.11-0.01-0.19-0.04-0.26c-0.05,0.06-0.09,0.14-0.11,0.22
			c-0.02,0.09-0.06,0.17-0.11,0.26c-0.2-0.04-0.3-0.21-0.31-0.5c-0.01-0.29-0.02-0.51-0.02-0.66c0-0.62,0.02-1.25,0.07-1.89
			c0.05-0.63,0.11-1.26,0.18-1.89c0.05-0.32,0.17-0.8,0.37-1.45s0.45-1.35,0.77-2.13c0.32-0.77,0.68-1.57,1.08-2.4
			c0.4-0.83,0.82-1.58,1.25-2.26c0.43-0.68,0.86-1.23,1.3-1.66s0.86-0.64,1.25-0.64c0.05,0,0.09,0.01,0.13,0.02
			c0.04,0.01,0.08,0.02,0.13,0.02c-0.34,0.54-0.69,1.06-1.05,1.56c-0.35,0.51-0.69,1.04-1.01,1.6c0.32-0.28,0.56-0.6,0.73-0.97
			c0.17-0.37,0.45-0.67,0.84-0.9c0.05-0.06,0.12-0.16,0.2-0.27c0.08-0.12,0.18-0.24,0.28-0.37c0.1-0.13,0.2-0.24,0.31-0.32
			c0.11-0.09,0.21-0.13,0.31-0.13c0.05,0,0.09,0.01,0.11,0.02c0.02,0.01,0.06,0.02,0.11,0.02c-0.02,0.09-0.05,0.18-0.07,0.29
			c-0.02,0.11-0.01,0.19,0.04,0.26l0.11-0.03l0.26-0.26l0.26,0.35c0.12,0.02,0.21,0.13,0.28,0.34c0.06,0.2,0.09,0.35,0.09,0.43
			c0,0.17-0.03,0.41-0.09,0.73c-0.06,0.31-0.14,0.55-0.24,0.72l-0.04,0.22c0.12,0,0.2-0.1,0.24-0.31c0.04-0.2,0.05-0.35,0.05-0.43
			l0.11-0.16c0.02,0.09,0.04,0.2,0.04,0.35c0,0.15-0.03,0.33-0.09,0.53c-0.06,0.2-0.14,0.41-0.22,0.63
			c-0.09,0.21-0.17,0.43-0.26,0.64c-0.09,0.21-0.15,0.4-0.2,0.55c0.51-0.41,0.98-0.82,1.4-1.22c0.42-0.41,0.84-0.8,1.27-1.19
			s0.89-0.75,1.38-1.08c0.49-0.33,1.06-0.64,1.73-0.92h0.81c0,0.06,0.01,0.12,0.02,0.18c0.01,0.05,0.03,0.11,0.05,0.18
			c0.19,0,0.34,0.01,0.44,0.03l0.07,0.03c0.12,0,0.26,0.05,0.42,0.16c0.16,0.11,0.31,0.24,0.46,0.39c0.15,0.15,0.28,0.3,0.4,0.45
			c0.12,0.15,0.22,0.27,0.29,0.35c0.05,0.22,0.07,0.38,0.07,0.48c0,0.04-0.01,0.09-0.02,0.13c-0.01,0.04-0.02,0.09-0.02,0.13
			l0.07-0.03l0.04,0.1L195.49,21.48z M179.74,31.93c0-0.02,0.01-0.06,0.04-0.11c0.02-0.05,0.04-0.09,0.04-0.11v-0.1l-0.11,0.23
			L179.74,31.93z M180.84,31.41c0.15-0.26,0.3-0.57,0.46-0.95c0.16-0.38,0.31-0.78,0.44-1.21c0.13-0.43,0.26-0.85,0.37-1.26
			s0.21-0.77,0.31-1.1c-0.29,0.73-0.6,1.47-0.92,2.22C181.19,29.87,180.97,30.64,180.84,31.41z M182.71,26.25
			c-0.05,0.04-0.07,0.1-0.07,0.16s-0.02,0.12-0.07,0.16l0.07-0.03L182.71,26.25z M183.49,31.54h-0.11l0.04,0.03L183.49,31.54z
			 M183.52,20.78l0.07-0.13l0.07-0.03l-0.04-0.03l-0.11,0.13L183.52,20.78L183.52,20.78z M183.93,30.89l-0.15,0.06l0.04,0.1
			l0.11-0.1L183.93,30.89L183.93,30.89z M183.96,30.25l-0.15,0.13l0.04,0.06l0.15-0.13L183.96,30.25z M183.89,26.87
			c0.17-0.3,0.32-0.61,0.46-0.92c0.13-0.31,0.26-0.63,0.39-0.95c-0.05,0.11-0.12,0.25-0.22,0.43c-0.1,0.18-0.2,0.37-0.29,0.55
			c-0.1,0.18-0.18,0.35-0.24,0.5c-0.06,0.15-0.09,0.26-0.09,0.32V26.87z M184.48,27c-0.07,0.11-0.17,0.27-0.29,0.48
			c-0.12,0.22-0.18,0.38-0.18,0.48c0.02,0,0.06-0.05,0.11-0.15c0.05-0.1,0.1-0.2,0.16-0.31c0.06-0.11,0.11-0.21,0.15-0.31
			C184.46,27.11,184.48,27.04,184.48,27z M184.66,28.03l-0.11,0.22c0.05-0.04,0.09-0.09,0.13-0.14c0.04-0.05,0.08-0.1,0.13-0.14
			L184.66,28.03z M184.59,30.09c0.07-0.11,0.22-0.31,0.44-0.6c0.22-0.29,0.46-0.59,0.72-0.9c0.26-0.31,0.49-0.6,0.72-0.85
			c0.22-0.26,0.38-0.42,0.48-0.48c-0.24,0.43-0.54,0.81-0.88,1.14c-0.34,0.33-0.65,0.7-0.92,1.11c-0.05,0.09-0.1,0.22-0.15,0.39
			c-0.05,0.17-0.15,0.26-0.29,0.26L184.59,30.09z M184.77,26.35l-0.11,0.1l0.07,0.06l0.07-0.1L184.77,26.35z M184.77,24.71
			l0.04,0.06l0.11-0.1v-0.06L184.77,24.71z M184.81,27.77c0,0.04,0.04,0.06,0.11,0.06l0.04-0.06l-0.04-0.06L184.81,27.77z
			 M185.39,28.28c-0.1,0.09-0.18,0.18-0.24,0.27c-0.06,0.1-0.13,0.2-0.2,0.31C185.15,28.73,185.3,28.54,185.39,28.28z M187.05,23.64
			c-0.22,0.41-0.48,0.8-0.79,1.16c-0.31,0.37-0.57,0.75-0.79,1.16c0.68-0.84,1.41-1.68,2.17-2.51c0.76-0.84,1.59-1.6,2.5-2.29
			c0.2-0.13,0.37-0.26,0.53-0.4c0.16-0.14,0.3-0.29,0.42-0.47h-0.15l-0.18,0.19c-0.42,0.11-0.77,0.3-1.06,0.58
			c-0.29,0.28-0.58,0.58-0.86,0.9c-0.28,0.32-0.56,0.64-0.83,0.95C187.73,23.23,187.41,23.47,187.05,23.64z M186.75,21.97
			c-0.27,0.37-0.49,0.78-0.68,1.26c-0.18,0.47-0.35,0.92-0.49,1.35c0.07-0.06,0.16-0.21,0.28-0.45c0.11-0.24,0.23-0.49,0.35-0.77
			c0.12-0.28,0.23-0.55,0.33-0.82C186.63,22.26,186.7,22.08,186.75,21.97z M185.98,19.58c-0.05,0.06-0.1,0.13-0.16,0.19
			c-0.06,0.06-0.13,0.13-0.2,0.19c0.17-0.06,0.29-0.17,0.37-0.32L185.98,19.58L185.98,19.58z M185.72,27.86
			c0.07-0.04,0.14-0.11,0.2-0.19c0.06-0.09,0.12-0.15,0.17-0.19c-0.07,0.04-0.14,0.1-0.2,0.18
			C185.83,27.73,185.77,27.8,185.72,27.86z M186.02,26.35c0.07,0,0.13-0.04,0.18-0.11c0.05-0.07,0.07-0.14,0.07-0.21h-0.07
			l-0.11,0.22l-0.11,0.1L186.02,26.35L186.02,26.35z M187.41,25.84c-0.27,0.17-0.51,0.41-0.73,0.72c-0.22,0.31-0.39,0.59-0.51,0.82
			c0.17-0.13,0.31-0.28,0.4-0.45c0.1-0.17,0.24-0.31,0.44-0.42L187.41,25.84z M186.38,25.9l0.11-0.06l-0.11-0.1l-0.11,0.1
			L186.38,25.9z M186.79,21.71v0.16l0.04-0.16H186.79z M187.3,26.77l0.04,0.06c-0.1,0.13-0.23,0.23-0.4,0.29L187.3,26.77z
			 M187.38,20.29l0.11-0.16l0.07,0.1l-0.11,0.16L187.38,20.29z M188.37,24.77c-0.1,0.06-0.18,0.14-0.26,0.24
			c-0.07,0.1-0.11,0.2-0.11,0.31L188.37,24.77z M188.51,24.67c0.05,0,0.09-0.04,0.13-0.13c0.04-0.09,0.08-0.15,0.13-0.19
			L188.51,24.67z M188.84,23.1l0.04,0.03l0.07-0.06L188.92,23L188.84,23.1z M188.88,24.19c0.05-0.02,0.12-0.07,0.22-0.14
			c0.1-0.07,0.2-0.16,0.31-0.26c0.11-0.1,0.2-0.19,0.28-0.27c0.07-0.09,0.11-0.15,0.11-0.19c-0.05,0-0.12,0.04-0.2,0.11
			c-0.09,0.08-0.18,0.16-0.28,0.26c-0.1,0.1-0.19,0.19-0.28,0.29C188.96,24.08,188.9,24.15,188.88,24.19z M188.92,28.8l0.15-0.13
			l-0.11-0.1l-0.07,0.13L188.92,28.8z M189.06,29.83l-0.07-0.03h-0.04v0.03l0.04,0.06L189.06,29.83z M189.28,29.67l0.04-0.03
			l-0.15-0.1l-0.11,0.03L189.28,29.67z M189.47,29.86h-0.18l0.04,0.03L189.47,29.86z M190.06,27.57l-0.11,0.06l0.04,0.13l0.07-0.06
			L190.06,27.57L190.06,27.57z M190.13,30.89l0.11-0.03h-0.15L190.13,30.89z M190.28,30.73l0.07-0.06l-0.18-0.13L190.28,30.73z
			 M190.28,33.57l-0.11,0.03l0.11,0.16l0.04-0.06L190.28,33.57z M190.42,29.99c-0.07,0.06-0.11,0.14-0.11,0.22l0.11-0.13V29.99z
			 M190.5,25.96l-0.07-0.06l-0.07,0.06l0.07,0.06L190.5,25.96z M191.12,28.09c-0.05,0.13-0.14,0.24-0.28,0.32
			c-0.14,0.09-0.2,0.19-0.2,0.32h0.18c-0.1,0.13-0.18,0.26-0.26,0.4c-0.07,0.14-0.15,0.29-0.22,0.44l0.11,0.16
			c0.02,0,0.06,0.01,0.11,0.03c0.05,0.02,0.09,0.03,0.11,0.03h0.22c-0.02-0.04-0.06-0.09-0.11-0.13c-0.05-0.04-0.07-0.09-0.07-0.13
			c0-0.04,0.02-0.1,0.05-0.16c0.04-0.06,0.08-0.12,0.13-0.16c-0.05-0.09-0.07-0.15-0.07-0.19c0-0.13,0.05-0.27,0.15-0.43
			C191.07,28.43,191.12,28.26,191.12,28.09z M190.42,25.61h-0.04l0.07,0.19v-0.16L190.42,25.61z M190.46,29.89
			c0.05,0.04,0.1,0.06,0.15,0.06c0-0.02-0.04-0.06-0.11-0.13L190.46,29.89z M191.05,32.34h0.04c0-0.06-0.06-0.13-0.18-0.19
			l0.04,0.13L191.05,32.34z M191.08,23.74l0.07-0.19l-0.07-0.16V23.74z M191.85,30.12c-0.02,0-0.07,0.05-0.13,0.14
			c-0.06,0.1-0.12,0.21-0.16,0.34c-0.05,0.13-0.1,0.25-0.16,0.35c-0.06,0.11-0.1,0.18-0.13,0.23l0.04,0.19
			c-0.05,0.04-0.1,0.12-0.15,0.24c-0.05,0.12-0.07,0.21-0.07,0.27v0.19c0.15-0.3,0.31-0.61,0.48-0.93s0.28-0.64,0.33-0.97
			L191.85,30.12z M191.19,27.61l0.04,0.16l0.11-0.19l0.04,0.03l-0.04,0.13l0.15-0.03c0-0.13-0.07-0.21-0.22-0.26L191.19,27.61z
			 M191.27,20.13l0.11,0.1l0.04-0.06l-0.07-0.06L191.27,20.13z M191.34,27.32h0.04l0.22-0.19L191.34,27.32z M191.45,22.65v0.1
			l0.04,0.06L191.45,22.65z M191.56,26.83v0.03l0.15-0.1l0.04-0.1l-0.07-0.1L191.56,26.83z M191.6,30.06l0.04,0.1l0.11-0.1
			l-0.04-0.06L191.6,30.06z M191.93,26.19c0.02-0.06,0.04-0.15,0.04-0.26L191.93,26.19z M191.96,29.31l-0.04,0.03
			c0.02,0.04,0.05,0.1,0.09,0.16c0.04,0.06,0.08,0.1,0.13,0.1l0.04-0.03L191.96,29.31z M192.63,28.51l-0.04-0.22l-0.15-0.1
			c-0.1,0.21-0.15,0.39-0.15,0.51l-0.07-0.1c-0.02,0-0.04,0.04-0.05,0.13c-0.01,0.09-0.02,0.14-0.02,0.16
			c0,0.13,0.05,0.19,0.15,0.19c0.02,0,0.04,0,0.05-0.02c0.01-0.01,0.03-0.02,0.05-0.02l0.04-0.1l-0.07-0.22l0.22-0.16L192.63,28.51z
			 M192.18,25.22l0.07,0.1l0.07-0.1l-0.07-0.06L192.18,25.22z M192.96,27.12c-0.17,0.11-0.26,0.2-0.26,0.29c0,0.09,0,0.21,0,0.39
			c-0.07-0.09-0.14-0.17-0.2-0.24c-0.06-0.08-0.14-0.13-0.24-0.18l0.15,0.23l-0.07,0.19l0.33,0.13l0.04,0.42
			c0-0.26,0.12-0.46,0.37-0.61l0.11-0.19c0-0.11-0.04-0.21-0.11-0.32l0.11,0.06l0.04-0.16L192.96,27.12L192.96,27.12z M192.33,28.03
			l0.04,0.03l0.15-0.06h-0.15L192.33,28.03z M192.44,24.64l0.07,0.03l0.11-0.03l-0.11-0.06L192.44,24.64z M192.7,23.9l0.04,0.16
			c0.05,0,0.1-0.02,0.16-0.05c0.06-0.03,0.12-0.07,0.16-0.11l-0.04-0.19l-0.15-0.13L192.7,23.9z M192.77,27.7l0.15-0.1l0.04,0.03
			L192.77,27.7z M192.96,26.96l0.07,0.06l0.07-0.13l-0.07-0.06L192.96,26.96z M193.17,29.44l0.04,0.06l-0.04,0.13l-0.15-0.06
			L193.17,29.44z M193.25,23.23l-0.07,0.13l0.11,0.16l0.04-0.03v-0.19L193.25,23.23z M193.43,26.48l0.04,0.16v-0.13
			c0-0.17-0.02-0.3-0.07-0.39c-0.07,0.06-0.11,0.14-0.11,0.22L193.43,26.48z M193.4,28.93l0.18,0.1l-0.29,0.32L193.4,28.93z
			 M193.4,25.58l0.07,0.1l0.04-0.06l-0.07-0.1L193.4,25.58z M193.43,27.96l-0.04-0.06l0.07-0.06l0.04,0.06L193.43,27.96z
			 M193.47,24.74l0.29,0.06l-0.15-0.13L193.47,24.74z M193.58,26.09l-0.04-0.26l-0.07,0.03v0.19L193.58,26.09z M193.51,22.39
			l0.04,0.1l0.07-0.1l-0.07-0.06L193.51,22.39z M193.51,28.57c0.05-0.04,0.09-0.09,0.13-0.14c0.04-0.05,0.07-0.1,0.09-0.14
			l-0.04,0.32L193.51,28.57z M193.91,26.09h-0.04l-0.11,0.06l0.07,0.13l0.07-0.06L193.91,26.09L193.91,26.09z M193.95,28.12
			l-0.04,0.16l-0.07-0.06v-0.16L193.95,28.12z M193.87,24.61l0.07,0.03l0.15-0.06l-0.11-0.03L193.87,24.61z M193.91,27.74
			l-0.04-0.06l0.04-0.03l0.22-0.03l0.04-0.03l-0.07,0.19L193.91,27.74z M193.95,24.35c0.05-0.06,0.1-0.13,0.16-0.21
			c0.06-0.07,0.14-0.11,0.24-0.11l-0.18-0.06l-0.22,0.16L193.95,24.35L193.95,24.35z M194.28,23.52l-0.07,0.06v0.1h0.11v-0.13
			L194.28,23.52z M194.24,26.77v-0.03c0-0.04,0.01-0.07,0.04-0.1l0.04,0.06L194.24,26.77z M194.42,25.26l0.04,0.06l0.07-0.1
			l-0.04-0.06L194.42,25.26z M194.46,22.77l0.11,0.03h0.07L194.46,22.77z M194.61,23.97l0.04-0.03V23.9l-0.15-0.1l-0.04,0.06
			L194.61,23.97z M194.53,24.32l0.04-0.06l-0.07-0.1v0.1L194.53,24.32z M194.9,20.91l0.04,0.1v-0.16L194.9,20.91z M195.27,23.1
			c-0.05-0.04-0.08-0.1-0.09-0.16c-0.01-0.06-0.03-0.12-0.05-0.16h-0.04l-0.18,0.13V23c0.05,0.04,0.1,0.06,0.16,0.06
			s0.12,0.01,0.16,0.03L195.27,23.1L195.27,23.1z M195.08,25.13l0.07,0.13l-0.07,0.06l-0.07-0.13L195.08,25.13z M195.12,21.55
			c-0.07,0-0.07,0.05,0,0.16V21.55z M195.3,20.97c-0.05,0-0.1,0.03-0.15,0.1c-0.05,0.06-0.07,0.12-0.07,0.16
			c0,0.02,0.01,0.04,0.02,0.06c0.01,0.02,0.02,0.04,0.02,0.06l0.07-0.19l0.15,0.1v-0.23L195.3,20.97z M195.16,22.77
			c0.07,0.06,0.12,0.1,0.15,0.1l0.04-0.03v-0.06L195.16,22.77L195.16,22.77z M195.23,22.29h0.04l0.11-0.1l-0.04-0.1L195.23,22.29z"
			/>
		<path class="st0" d="M209.58,9.5c0.07,0.06,0.12,0.14,0.15,0.24c0.02,0.1,0.06,0.19,0.11,0.27v0.13l-0.22,0.32
			c-0.15,0.28-0.28,0.6-0.4,0.95c-0.12,0.35-0.27,0.69-0.44,1.02c-0.44,0.82-0.92,1.61-1.43,2.37c-0.51,0.76-0.98,1.55-1.4,2.37
			c0.54-0.54,0.98-1.18,1.32-1.92s0.73-1.42,1.17-2.05c-0.32,0.69-0.66,1.35-1.01,2c-0.35,0.64-0.7,1.31-1.05,2
			c0.17,0.13,0.37,0.21,0.59,0.26s0.43,0.11,0.62,0.19c0.02,0.04,0.04,0.13,0.04,0.26c0.27,0.11,0.45,0.19,0.53,0.24
			c0.09,0.05,0.15,0.2,0.2,0.43c0.12,0.04,0.2,0.11,0.24,0.21c0.04,0.1,0.05,0.2,0.05,0.31l-0.07,0.16l0.22,0.06l0.04,0.03
			c-0.02,0.11-0.08,0.19-0.16,0.24c-0.09,0.05-0.18,0.1-0.28,0.14l0.48,0.06c-0.07,0.09-0.21,0.13-0.42,0.13c-0.21,0-0.37,0-0.49,0
			c-0.42,0-0.83-0.05-1.25-0.16c-0.42-0.11-0.83-0.16-1.25-0.16c-0.15,0-0.29,0.09-0.42,0.27c-0.14,0.18-0.26,0.39-0.37,0.63
			c-0.11,0.24-0.21,0.47-0.29,0.69c-0.09,0.22-0.15,0.39-0.2,0.5c-0.59,1.42-1.17,2.86-1.76,4.33c-0.59,1.47-0.95,2.97-1.1,4.49
			c-0.02,0.11-0.04,0.21-0.04,0.31c0,0.1,0,0.2,0,0.31c0,0.32,0.04,0.55,0.13,0.68c0.08,0.13,0.2,0.22,0.35,0.27
			c0.15,0.05,0.32,0.1,0.51,0.13c0.19,0.03,0.4,0.12,0.62,0.27c0.1,0.06,0.18,0.13,0.26,0.19c0.07,0.06,0.17,0.12,0.29,0.16
			c0.02,0.21-0.06,0.41-0.26,0.6c-0.2,0.18-0.45,0.35-0.75,0.5c-0.31,0.15-0.62,0.27-0.94,0.37c-0.32,0.1-0.56,0.16-0.73,0.18
			c-0.2,0.04-0.42,0.06-0.66,0.06c-0.24,0-0.46,0-0.66,0c-0.73,0-1.34-0.15-1.82-0.45c-0.48-0.3-0.86-0.68-1.14-1.14
			c-0.28-0.46-0.48-0.98-0.59-1.55c-0.11-0.57-0.16-1.12-0.16-1.66c0-0.92,0.12-1.83,0.37-2.72c0.24-0.89,0.56-1.77,0.95-2.63
			c0.39-0.86,0.82-1.7,1.28-2.53c0.46-0.83,0.9-1.66,1.32-2.5c-0.37,0-0.73-0.05-1.08-0.16c-0.35-0.11-0.72-0.16-1.08-0.16
			c-0.2-0.15-0.45-0.26-0.77-0.32l-0.22-0.22l0.07-0.19c0.12-0.04,0.18-0.12,0.18-0.23v-0.1h-0.15l-0.33,0.06
			c-0.07-0.06-0.11-0.15-0.11-0.26c0-0.15,0.21-0.27,0.62-0.37c0.42-0.1,0.89-0.16,1.41-0.19c0.53-0.03,1.03-0.05,1.52-0.06
			c0.49-0.01,0.81-0.02,0.95-0.02h0.48c0.2-0.28,0.48-0.67,0.84-1.18c0.37-0.5,0.77-1.06,1.21-1.66s0.91-1.21,1.41-1.82
			c0.5-0.61,1-1.18,1.5-1.69c0.5-0.51,0.99-0.94,1.45-1.27c0.46-0.33,0.88-0.51,1.25-0.53c-0.12,0.11-0.29,0.25-0.49,0.43
			c-0.21,0.18-0.42,0.38-0.62,0.6c-0.21,0.22-0.4,0.42-0.57,0.61c-0.17,0.19-0.28,0.35-0.33,0.48c0.42-0.3,0.81-0.63,1.17-0.98
			c0.37-0.35,0.79-0.65,1.28-0.89l-0.37,0.58v0.03C209.14,9.8,209.36,9.67,209.58,9.5z M197.14,28.8l-0.15,0.06l-0.11,0.13
			l0.22-0.03L197.14,28.8z M197.14,27.19l0.04,0.06l0.07-0.06l-0.04-0.06L197.14,27.19z M197.17,28.54
			c0.07-0.11,0.12-0.22,0.13-0.34c0.01-0.12,0.03-0.23,0.05-0.34c0.12-0.54,0.3-1.13,0.53-1.79c0.23-0.66,0.49-1.31,0.79-1.95
			c0.29-0.64,0.61-1.27,0.94-1.88c0.33-0.61,0.65-1.17,0.97-1.66l0.04-0.03l0.4-1.09c-0.34,0.56-0.73,1.22-1.17,1.98
			c-0.44,0.76-0.86,1.56-1.27,2.4c-0.4,0.84-0.74,1.66-1.01,2.47c-0.27,0.81-0.4,1.51-0.4,2.11L197.17,28.54L197.17,28.54z
			 M198.06,24.58l0.07-0.06l0.07-0.19l-0.15,0.06L198.06,24.58L198.06,24.58z M198.2,24.19c0.05-0.02,0.09-0.06,0.11-0.11
			c0.02-0.05,0.05-0.1,0.07-0.15l-0.11,0.03L198.2,24.19z M198.79,23c-0.1,0.09-0.2,0.22-0.29,0.39l0.15-0.1L198.79,23z
			 M198.72,22.87c0.05,0,0.13-0.09,0.24-0.27s0.23-0.4,0.35-0.64c0.12-0.25,0.24-0.49,0.37-0.72c0.12-0.24,0.21-0.41,0.26-0.52
			L198.72,22.87z M198.86,28.64c0.1-0.11,0.16-0.23,0.18-0.37c0.02-0.14,0.06-0.27,0.11-0.4c0.29-0.97,0.61-1.93,0.95-2.88
			c0.34-0.96,0.75-1.89,1.21-2.82c0.22-0.43,0.45-0.85,0.7-1.27c0.24-0.42,0.44-0.86,0.59-1.34c-0.29,0.49-0.66,1.14-1.08,1.93
			s-0.84,1.62-1.25,2.48c-0.4,0.86-0.75,1.7-1.03,2.51c-0.28,0.82-0.42,1.48-0.42,2c0,0.04,0.01,0.07,0.02,0.08
			C198.86,28.57,198.86,28.6,198.86,28.64z M200.74,19.49c-0.27,0.34-0.48,0.69-0.62,1.03c0.07-0.04,0.18-0.2,0.33-0.48
			C200.59,19.76,200.69,19.57,200.74,19.49z M200.18,30.06c0.12-0.45,0.23-0.91,0.33-1.37c0.1-0.46,0.21-0.91,0.33-1.34
			c0.2-0.67,0.44-1.31,0.73-1.95c0.29-0.63,0.59-1.27,0.9-1.9c0.31-0.63,0.59-1.27,0.86-1.92c0.27-0.64,0.49-1.3,0.66-1.97
			c-0.17,0.3-0.39,0.71-0.64,1.24c-0.26,0.53-0.53,1.11-0.81,1.76c-0.28,0.64-0.56,1.32-0.84,2.03c-0.28,0.71-0.54,1.39-0.77,2.03
			c-0.23,0.64-0.42,1.24-0.55,1.79c-0.13,0.55-0.2,0.97-0.2,1.27L200.18,30.06L200.18,30.06z M203.38,22.97
			c0.02-0.26,0.1-0.52,0.24-0.79c0.13-0.27,0.28-0.53,0.42-0.79c0.15-0.26,0.28-0.51,0.4-0.77c0.12-0.26,0.18-0.5,0.18-0.74
			c0-0.11-0.01-0.17-0.04-0.19c-0.34,0.73-0.74,1.56-1.19,2.48c-0.45,0.92-0.88,1.87-1.27,2.85c-0.39,0.98-0.72,1.94-0.99,2.9
			c-0.27,0.96-0.4,1.83-0.4,2.63c0,0.06,0,0.16,0,0.27c0,0.12,0.04,0.2,0.11,0.24l0.04-0.13c0.15-0.82,0.33-1.63,0.55-2.45
			c0.05-0.15,0.15-0.47,0.31-0.97c0.16-0.49,0.32-1.02,0.49-1.56s0.32-1.05,0.46-1.51c0.13-0.46,0.2-0.72,0.2-0.79l0.11-0.06
			C203.03,23.37,203.16,23.16,203.38,22.97z M200.84,31.18l-0.07,0.16l0.11,0.13L200.84,31.18z M203.08,16.23
			c-0.05,0.09-0.14,0.21-0.28,0.37c-0.14,0.16-0.2,0.3-0.2,0.4v0.03l0.15-0.1c0.05-0.11,0.11-0.22,0.18-0.34
			C203.01,16.49,203.06,16.36,203.08,16.23z M204.92,13.4h-0.04l-0.15,0.22v0.06L204.92,13.4z M205.25,13.08
			c-0.15,0-0.22,0.06-0.22,0.19c0.02-0.06,0.09-0.1,0.18-0.1c0.05,0,0.1,0.02,0.15,0.06L205.25,13.08z M206.94,12.72
			c0-0.02,0.01-0.04,0.02-0.05c0.01-0.01,0.02-0.03,0.02-0.05v-0.03l-0.04-0.06l-0.11,0.13L206.94,12.72z"/>
		<path class="st0" d="M210.06,22.52c-0.2,0.17-0.39,0.34-0.57,0.5c-0.18,0.16-0.39,0.31-0.61,0.43c-0.05,0.04-0.09,0.08-0.13,0.11
			c-0.04,0.03-0.07,0.06-0.09,0.08l-0.11,0.03l-0.07,0.06l-0.22-0.22L208,23.55c-0.1-0.02-0.21-0.04-0.35-0.05
			c-0.13-0.01-0.2-0.07-0.2-0.18v-0.16c-0.1-0.17-0.15-0.3-0.15-0.39s0.05-0.24,0.16-0.47c0.11-0.23,0.19-0.38,0.24-0.47
			c0.29-0.47,0.7-0.89,1.21-1.24c0.51-0.35,1.07-0.64,1.67-0.87c0.6-0.22,1.22-0.4,1.87-0.51c0.65-0.12,1.27-0.18,1.85-0.18
			c0.56,0,1.13,0.08,1.69,0.23c0.56,0.15,1.13,0.22,1.69,0.22c0.2,0,0.4-0.04,0.61-0.11c0.21-0.07,0.42-0.16,0.62-0.24
			c0.21-0.09,0.42-0.17,0.64-0.24c0.22-0.07,0.46-0.11,0.73-0.11c0.34,0,0.69,0.13,1.03,0.39l-0.66,0.23l-0.04,0.06
			c-0.37,0.06-0.73,0.2-1.1,0.42l0.22,0.06c0.24-0.04,0.48-0.11,0.7-0.19c0.22-0.09,0.46-0.13,0.73-0.13c0.1,0,0.24,0.02,0.44,0.06
			c0.05,0.09-0.02,0.18-0.2,0.27c-0.18,0.1-0.3,0.17-0.35,0.21l0.37-0.13c-0.12,0.11-0.26,0.19-0.42,0.24
			c-0.16,0.05-0.3,0.13-0.42,0.24c0.2-0.04,0.39-0.11,0.57-0.19c0.18-0.09,0.37-0.17,0.57-0.26c0.05,0.09,0.07,0.17,0.07,0.26
			s0,0.18,0,0.29c0,0.28-0.11,0.58-0.33,0.89c-0.22,0.31-0.46,0.61-0.73,0.9c-0.27,0.29-0.52,0.57-0.75,0.84
			c-0.23,0.27-0.36,0.49-0.39,0.66c0.29-0.26,0.56-0.52,0.81-0.79c0.24-0.27,0.49-0.55,0.73-0.85h0.04v0.03l-0.37,0.42
			c-0.12,0.39-0.52,0.9-1.19,1.53c-0.67,0.63-1.44,1.29-2.29,1.97c-0.86,0.68-1.7,1.31-2.53,1.9c-0.83,0.59-1.46,1.02-1.87,1.27
			c-0.37,0.24-0.76,0.46-1.17,0.66c-0.42,0.2-0.78,0.46-1.1,0.76c0.69,0.17,1.38,0.28,2.07,0.32c0.7,0.04,1.39,0.13,2.07,0.26
			c0.05,0,0.08,0,0.09-0.02c0.01-0.01,0.04-0.02,0.09-0.02h0.18l0.07,0.03c0.32-0.15,0.69-0.28,1.12-0.4
			c0.43-0.12,0.82-0.26,1.19-0.43c0.37-0.17,0.68-0.39,0.94-0.64c0.26-0.26,0.39-0.6,0.39-1.03c0-0.09-0.01-0.17-0.04-0.24
			c-0.02-0.08-0.04-0.16-0.04-0.24v-0.1l-0.18-0.19c-0.02-0.02-0.05-0.04-0.09-0.06c-0.04-0.02-0.05-0.04-0.05-0.06
			c0-0.04,0.02-0.09,0.05-0.13c0.04-0.04,0.05-0.09,0.05-0.13l0.07-0.16l-0.07-0.29l0.04-0.16l0.18,0.1l0.04,0.06l0.37,0.1l0.11,0.1
			c0.07,0,0.11-0.05,0.11-0.16c0.1,0.04,0.23,0.16,0.39,0.34c0.16,0.18,0.31,0.4,0.46,0.64c0.15,0.25,0.27,0.48,0.37,0.71
			c0.1,0.22,0.15,0.38,0.15,0.47c0,0.09-0.01,0.16-0.02,0.23c-0.01,0.06-0.02,0.13-0.02,0.19l0.07,0.13l-0.33,0.35
			c-0.07,0.32-0.23,0.64-0.46,0.95c-0.23,0.31-0.51,0.6-0.82,0.87c-0.32,0.27-0.65,0.52-0.99,0.76c-0.34,0.24-0.66,0.45-0.95,0.64
			l0.4,0.03l-0.44,0.22h-0.37c-0.2,0.13-0.39,0.19-0.57,0.19s-0.37,0.04-0.57,0.13l-0.22-0.06l-0.07-0.06l-0.07,0.06l-0.4,0.06
			l-0.22-0.13c0.1-0.04,0.15-0.09,0.15-0.13s-0.02-0.06-0.07-0.06l-0.22,0.13l-0.07,0.19c-0.05,0-0.12,0-0.2,0
			c-0.09,0-0.15-0.01-0.2-0.03c-0.15,0.04-0.28,0.06-0.4,0.06c-0.07,0-0.23-0.02-0.46-0.05c-0.23-0.03-0.48-0.08-0.75-0.13
			c-0.27-0.05-0.51-0.1-0.73-0.14c-0.22-0.04-0.35-0.08-0.4-0.1c-0.47,0.04-0.94,0.02-1.41-0.08c-0.48-0.1-0.95-0.2-1.43-0.32
			c-0.48-0.12-0.96-0.23-1.45-0.34c-0.49-0.11-0.98-0.16-1.47-0.16c-0.34,0-0.58,0.01-0.7,0.03c-0.12,0.02-0.33-0.05-0.62-0.22
			h-0.22c-0.05,0.04-0.11,0.06-0.18,0.06c-0.05,0-0.08-0.04-0.09-0.11c-0.01-0.08-0.02-0.13-0.02-0.18
			c0.07-0.11,0.18-0.22,0.33-0.35c0.15-0.13,0.23-0.25,0.26-0.35l0.04-0.06c-0.15,0.09-0.29,0.18-0.42,0.29
			c-0.13,0.11-0.26,0.22-0.39,0.32c0-0.13,0.02-0.28,0.05-0.47c0.04-0.18,0.08-0.34,0.13-0.47c0.02-0.06,0.23-0.26,0.62-0.58
			c0.39-0.32,0.83-0.68,1.32-1.08c0.49-0.4,0.97-0.78,1.43-1.14c0.46-0.37,0.77-0.63,0.92-0.81c0.93-0.97,1.87-1.91,2.83-2.84
			c0.95-0.92,1.98-1.79,3.08-2.61c0.1-0.06,0.28-0.19,0.53-0.37c0.26-0.18,0.4-0.33,0.42-0.43c-0.12-0.04-0.26-0.09-0.4-0.13
			c-0.15-0.04-0.28-0.06-0.4-0.06l-0.04,0.03c-0.22,0.06-0.45,0.1-0.68,0.1s-0.46,0.03-0.68,0.1l-0.18-0.06l-0.15,0.13
			c-0.29,0.06-0.61,0.16-0.95,0.27c-0.34,0.12-0.61,0.27-0.81,0.47l-0.33,0.1h-0.04l0.18-0.19c-0.22,0-0.48,0.15-0.77,0.45
			s-0.55,0.56-0.77,0.77L210.06,22.52z M206.94,30.02c0.15-0.02,0.43-0.2,0.84-0.55c0.42-0.34,0.9-0.76,1.47-1.26
			c0.56-0.49,1.17-1.04,1.82-1.63c0.65-0.59,1.27-1.15,1.87-1.69c0.6-0.54,1.13-1.02,1.6-1.45c0.46-0.43,0.81-0.73,1.03-0.9
			c-1.57,1.12-3.02,2.28-4.35,3.49c-1.33,1.21-2.7,2.47-4.09,3.75L206.94,30.02z M210.42,20.36c-0.29,0.06-0.55,0.18-0.77,0.35
			c-0.22,0.17-0.47,0.32-0.73,0.45c0,0.04-0.05,0.11-0.15,0.19c-0.1,0.09-0.21,0.19-0.33,0.32s-0.24,0.26-0.35,0.39
			s-0.18,0.25-0.2,0.35c0.88-0.69,1.75-1.35,2.61-2L210.42,20.36z M208.07,28.77c0.07-0.06,0.14-0.14,0.2-0.22
			c0.06-0.09,0.15-0.16,0.28-0.23c-0.12,0.04-0.21,0.11-0.28,0.19c-0.06,0.09-0.13,0.16-0.2,0.23V28.77z M208.3,22.9
			c0.1-0.06,0.21-0.17,0.35-0.32c0.13-0.15,0.24-0.28,0.31-0.39c-0.12,0-0.26,0.09-0.4,0.27C208.4,22.65,208.32,22.8,208.3,22.9z
			 M208.55,28.25c0.12-0.11,0.34-0.29,0.64-0.55c0.31-0.26,0.48-0.44,0.53-0.55h-0.04L208.55,28.25z M208.7,23.16
			c0.24-0.13,0.49-0.31,0.73-0.53c0.24-0.22,0.46-0.42,0.66-0.6c-0.27,0.15-0.51,0.33-0.72,0.53
			C209.17,22.77,208.94,22.97,208.7,23.16z M211.45,25.51c-0.07,0.06-0.19,0.17-0.35,0.31c-0.16,0.14-0.33,0.29-0.51,0.45
			c-0.18,0.16-0.34,0.32-0.48,0.47s-0.21,0.25-0.24,0.29l1.65-1.51L211.45,25.51L211.45,25.51z M210.28,30.64
			c1.56-0.75,3.06-1.67,4.49-2.76c1.43-1.08,2.76-2.21,3.98-3.37l0.07-0.1c-0.69,0.56-1.4,1.08-2.13,1.58
			c-0.73,0.49-1.47,0.99-2.2,1.5c-0.73,0.51-1.46,1.01-2.17,1.51C211.62,29.51,210.94,30.06,210.28,30.64z M215.6,24.45
			c-0.07,0.02-0.23,0.12-0.48,0.31c-0.25,0.18-0.54,0.41-0.88,0.69c-0.34,0.28-0.71,0.58-1.1,0.89c-0.39,0.31-0.76,0.62-1.12,0.92
			c-0.35,0.3-0.68,0.58-0.97,0.82c-0.29,0.25-0.5,0.42-0.62,0.53c0.22-0.15,0.61-0.43,1.17-0.85c0.56-0.42,1.14-0.85,1.74-1.31
			s1.13-0.86,1.6-1.24c0.46-0.38,0.7-0.62,0.7-0.72L215.6,24.45z M212.04,25.03c-0.07,0.02-0.16,0.1-0.26,0.23l0.29-0.23H212.04z
			 M216.99,25.09c-0.83,0.6-1.66,1.2-2.5,1.79c-0.83,0.59-1.63,1.22-2.39,1.89c0.12-0.02,0.42-0.2,0.9-0.53
			c0.48-0.33,0.99-0.71,1.54-1.13c0.55-0.42,1.06-0.83,1.54-1.22C216.57,25.49,216.87,25.22,216.99,25.09z M213.65,33.7l-0.18,0.06
			l0.11,0.06L213.65,33.7z M215.12,33.99l-0.04-0.1l-0.11,0.03l0.07,0.1L215.12,33.99z M215.71,22.19l0.15-0.06v-0.1l-0.18,0.1
			L215.71,22.19z M216.41,33.7l-0.04-0.1l-0.07,0.13l0.04,0.03L216.41,33.7z M216.63,31.73c0.27-0.11,0.53-0.21,0.77-0.31
			c0.24-0.1,0.48-0.22,0.7-0.37c0.1-0.13,0.2-0.26,0.31-0.39s0.23-0.25,0.35-0.35c-0.1,0.04-0.23,0.12-0.39,0.22
			c-0.16,0.11-0.32,0.22-0.49,0.32c-0.17,0.11-0.34,0.2-0.49,0.29c-0.16,0.09-0.28,0.13-0.35,0.13c-0.07,0.04-0.15,0.09-0.24,0.14
			c-0.09,0.05-0.15,0.11-0.2,0.18L216.63,31.73z M216.88,33.31l-0.07,0.06l0.04,0.1l0.11-0.1L216.88,33.31z M217.73,33.57
			c0.1-0.06,0.23-0.16,0.4-0.27c0.17-0.12,0.32-0.18,0.44-0.18c-0.02,0.09-0.15,0.17-0.37,0.26
			C217.98,33.46,217.82,33.52,217.73,33.57z M217.91,31.93c0.12,0,0.26-0.06,0.4-0.18c0.15-0.12,0.23-0.23,0.26-0.34
			c-0.05,0.04-0.17,0.13-0.37,0.26c-0.2,0.13-0.32,0.2-0.37,0.22L217.91,31.93z M217.87,32.86c0.17,0,0.37-0.09,0.59-0.27
			c0.22-0.18,0.35-0.34,0.4-0.47l-0.33,0.16L217.87,32.86z M218.83,27.93l-0.07-0.19l-0.11,0.06l0.15,0.19L218.83,27.93z
			 M219.12,32.63l0.07,0.03l-0.22,0.1l-0.04-0.03L219.12,32.63z M219.23,31.67l-0.18,0.06l0.07,0.1L219.23,31.67z M219.64,30.44
			l-0.11-0.03l-0.18,0.16L219.64,30.44z M219.86,31.25l-0.37-0.13c0.1,0.04,0.19,0.1,0.29,0.16l-0.04,0.06L219.86,31.25z
			 M220.26,30.47l-0.11,0.13v0.03l0.15-0.06L220.26,30.47z"/>
	</g>
</g>
</svg>
